<?xml version="1.0" encoding="UTF-8" standalone="no"?>
<!-- Created with Inkscape (http://www.inkscape.org/) -->

<svg
   xmlns:dc="http://purl.org/dc/elements/1.1/"
   xmlns:cc="http://creativecommons.org/ns#"
   xmlns:rdf="http://www.w3.org/1999/02/22-rdf-syntax-ns#"
   xmlns:svg="http://www.w3.org/2000/svg"
   xmlns="http://www.w3.org/2000/svg"
   xmlns:sodipodi="http://sodipodi.sourceforge.net/DTD/sodipodi-0.dtd"
   xmlns:inkscape="http://www.inkscape.org/namespaces/inkscape"
   width="233.92421"
   height="252.20157"
   preserveAspectRatio="xMinYMin meet"
   viewBox="0 0 792pt 612pt"
   id="svg2"
   version="1.1"
   inkscape:version="0.48.2 r9819"
   sodipodi:docname="ablattice.svg">
  <sodipodi:namedview
     inkscape:document-units="in"
     pagecolor="#ffffff"
     bordercolor="#666666"
     borderopacity="1.0"
     inkscape:pageopacity="0.0"
     inkscape:pageshadow="2"
     inkscape:zoom="0.78290123"
     inkscape:cx="-138.38898"
     inkscape:cy="151.30543"
     inkscape:current-layer="layer1"
     id="namedview6"
     showgrid="false"
     inkscape:window-width="1554"
     inkscape:window-height="871"
     inkscape:window-x="33"
     inkscape:window-y="0"
     inkscape:window-maximized="0"
     units="px"
     fit-margin-top="0"
     fit-margin-left="0"
     fit-margin-right="0"
     fit-margin-bottom="0">
    <inkscape:grid
       type="xygrid"
       id="grid3005"
       empspacing="5"
       visible="true"
       enabled="true"
       snapvisiblegridlinesonly="true" />
  </sodipodi:namedview>
  <defs
     id="defs4">
    <marker
       style="overflow:visible"
       id="Arrow1Lend"
       refX="0"
       refY="0"
       orient="auto"
       inkscape:stockid="Arrow1Lend">
      <path
         transform="matrix(-0.8,0,0,-0.8,-10,0)"
         style="fill-rule:evenodd;stroke:#000000;stroke-width:1pt;marker-start:none"
         d="M 0,0 5,-5 -12.5,0 5,5 0,0 z"
         id="path3783"
         inkscape:connector-curvature="0" />
    </marker>
    <marker
       inkscape:stockid="Arrow1Mend"
       orient="auto"
       refY="0"
       refX="0"
       id="Arrow1Mend"
       style="overflow:visible">
      <path
         id="path3789"
         d="M 0,0 5,-5 -12.5,0 5,5 0,0 z"
         style="fill-rule:evenodd;stroke:#000000;stroke-width:1pt;marker-start:none"
         transform="matrix(-0.4,0,0,-0.4,-4,0)"
         inkscape:connector-curvature="0" />
    </marker>
    <marker
       inkscape:stockid="Arrow2Lend"
       orient="auto"
       refY="0"
       refX="0"
       id="Arrow2Lend"
       style="overflow:visible">
      <path
         id="path3801"
         style="font-size:12px;fill-rule:evenodd;stroke-width:0.625;stroke-linejoin:round"
         d="M 8.7185878,4.0337352 -2.2072895,0.01601326 8.7185884,-4.0017078 c -1.7454984,2.3720609 -1.7354408,5.6174519 -6e-7,8.035443 z"
         transform="matrix(-1.1,0,0,-1.1,-1.1,0)"
         inkscape:connector-curvature="0" />
    </marker>
  </defs>
  <metadata
     id="metadata8">
    <rdf:RDF>
      <cc:Work
         rdf:about="">
        <dc:format>image/svg+xml</dc:format>
        <dc:type
           rdf:resource="http://purl.org/dc/dcmitype/StillImage" />
        <dc:title />
      </cc:Work>
    </rdf:RDF>
  </metadata>
  <g
     inkscape:label="Layer 1"
     inkscape:groupmode="layer"
     id="layer1"
     transform="translate(-104.28534,-105.32501)">
    <g
       transform="matrix(0.42158781,-0.42158781,0.42158781,0.42158781,187.6109,349.86417)"
       id="g4810">
      <path
         inkscape:connector-curvature="0"
         id="path3007"
         d="m 90,45 180,0"
         style="fill:none;stroke:#000000;stroke-width:2;stroke-linecap:butt;stroke-linejoin:miter;stroke-miterlimit:4;stroke-opacity:1;stroke-dasharray:none;marker-end:url(#Arrow1Lend)"
         sodipodi:nodetypes="cc" />
      <g
         id="g4418"
         transform="translate(-147.52241,-270.47771)">
        <g
           word-spacing="normal"
           letter-spacing="normal"
           font-size-adjust="none"
           font-stretch="normal"
           font-weight="normal"
           font-variant="normal"
           font-style="normal"
           stroke-miterlimit="10.433"
           xml:space="preserve"
           transform="matrix(1.0928571,0,0,-1.0928571,-191.25,742.5)"
           id="content"
           style="font-style:normal;font-variant:normal;font-weight:normal;font-stretch:normal;letter-spacing:normal;word-spacing:normal;text-anchor:start;fill:none;stroke:#000000;stroke-linecap:butt;stroke-linejoin:miter;stroke-miterlimit:10.43299961;stroke-opacity:1;stroke-dasharray:none;stroke-dashoffset:0"><path
             id="path4421"
             d="m 489.35,435.89 0.16,0 0.16,0 0.15,0 0.08,0.01 0.08,0 0.07,0.01 0.08,0.01 0.07,0.01 0.07,0.01 0.07,0.01 0.07,0.02 0.07,0.02 0.06,0.02 0.06,0.03 0.06,0.02 0.05,0.04 0.06,0.03 0.05,0.04 0.04,0.04 0.04,0.05 0.04,0.05 0.02,0.03 0.02,0.02 0.01,0.03 0.02,0.03 0.01,0.03 0.02,0.04 0.01,0.03 0.01,0.04 0.01,0.03 0,0.04 0.01,0.04 0.01,0.04 0,0.04 0.01,0.05 0,0.04 0,0.05 c 0,1 -0.91,1 -1.75,1 H 462 c -1.61,0 -1.79,-0.21 -1.79,-1.8 v -25.25 c 0,-1.66 0.14,-1.8 1.73,-1.8 h 27.41 c 0.84,0 1.75,0 1.75,1 0,0.99 -0.96,0.99 -1.8,0.99 h -27.11 v 24.86 z"
             inkscape:connector-curvature="0"
             style="fill:#000000;stroke-width:0" /><path
             id="path4423"
             d="m 489.35,399.37 0.16,0 0.16,0 0.15,0.01 0.08,0 0.08,0.01 0.07,0 0.08,0.01 0.07,0.01 0.07,0.01 0.07,0.02 0.07,0.01 0.07,0.02 0.06,0.03 0.06,0.02 0.06,0.03 0.05,0.03 0.06,0.04 0.05,0.03 0.04,0.05 0.04,0.04 0.04,0.05 0.02,0.03 0.02,0.03 0.01,0.03 0.02,0.03 0.01,0.03 0.02,0.03 0.01,0.04 0.01,0.03 0.01,0.04 0,0.04 0.01,0.03 0.01,0.04 0,0.05 0.01,0.04 0,0.04 0,0.05 c 0,1 -1.05,1 -1.8,1 h -27.86 c -0.8,0 -1.78,0 -1.78,-1 0,-1 0.89,-1 1.73,-1 z"
             inkscape:connector-curvature="0"
             style="fill:#000000;stroke-width:0" /></g>      </g>
    </g>
    <g
       id="g4892"
       transform="matrix(-0.42158781,-0.42158781,-0.42158781,0.42158781,259.70455,350.18358)">
      <path
         sodipodi:nodetypes="cc"
         style="fill:none;stroke:#000000;stroke-width:2;stroke-linecap:butt;stroke-linejoin:miter;stroke-miterlimit:4;stroke-opacity:1;stroke-dasharray:none;marker-end:url(#Arrow1Lend)"
         d="m 90,45 180,0"
         id="path4894"
         inkscape:connector-curvature="0" />
      <g
         transform="translate(-147.52241,-270.47771)"
         id="g4896">
        <g
           style="font-style:normal;font-variant:normal;font-weight:normal;font-stretch:normal;letter-spacing:normal;word-spacing:normal;text-anchor:start;fill:none;stroke:#000000;stroke-linecap:butt;stroke-linejoin:miter;stroke-miterlimit:10.43299961;stroke-opacity:1;stroke-dasharray:none;stroke-dashoffset:0"
           id="g4898"
           transform="matrix(1.0928571,0,0,-1.0928571,-191.25,742.5)"
           xml:space="preserve"
           stroke-miterlimit="10.433"
           font-style="normal"
           font-variant="normal"
           font-weight="normal"
           font-stretch="normal"
           font-size-adjust="none"
           letter-spacing="normal"
           word-spacing="normal"><path
             style="fill:#000000;stroke-width:0"
             inkscape:connector-curvature="0"
             d="m 489.35,435.89 0.16,0 0.16,0 0.15,0 0.08,0.01 0.08,0 0.07,0.01 0.08,0.01 0.07,0.01 0.07,0.01 0.07,0.01 0.07,0.02 0.07,0.02 0.06,0.02 0.06,0.03 0.06,0.02 0.05,0.04 0.06,0.03 0.05,0.04 0.04,0.04 0.04,0.05 0.04,0.05 0.02,0.03 0.02,0.02 0.01,0.03 0.02,0.03 0.01,0.03 0.02,0.04 0.01,0.03 0.01,0.04 0.01,0.03 0,0.04 0.01,0.04 0.01,0.04 0,0.04 0.01,0.05 0,0.04 0,0.05 c 0,1 -0.91,1 -1.75,1 H 462 c -1.61,0 -1.79,-0.21 -1.79,-1.8 v -25.25 c 0,-1.66 0.14,-1.8 1.73,-1.8 h 27.41 c 0.84,0 1.75,0 1.75,1 0,0.99 -0.96,0.99 -1.8,0.99 h -27.11 v 24.86 z"
             id="path4900" /><path
             style="fill:#000000;stroke-width:0"
             inkscape:connector-curvature="0"
             d="m 489.35,399.37 0.16,0 0.16,0 0.15,0.01 0.08,0 0.08,0.01 0.07,0 0.08,0.01 0.07,0.01 0.07,0.01 0.07,0.02 0.07,0.01 0.07,0.02 0.06,0.03 0.06,0.02 0.06,0.03 0.05,0.03 0.06,0.04 0.05,0.03 0.04,0.05 0.04,0.04 0.04,0.05 0.02,0.03 0.02,0.03 0.01,0.03 0.02,0.03 0.01,0.03 0.02,0.03 0.01,0.04 0.01,0.03 0.01,0.04 0,0.04 0.01,0.03 0.01,0.04 0,0.05 0.01,0.04 0,0.04 0,0.05 c 0,1 -1.05,1 -1.8,1 h -27.86 c -0.8,0 -1.78,0 -1.78,-1 0,-1 0.89,-1 1.73,-1 z"
             id="path4902" /></g>      </g>
    </g>
    <g
       transform="matrix(0.42158781,0.42158781,-0.42158781,0.42158781,128.57459,119.87733)"
       id="g5326">
      <path
         sodipodi:nodetypes="cc"
         style="fill:none;stroke:#000000;stroke-width:2;stroke-linecap:butt;stroke-linejoin:miter;stroke-miterlimit:4;stroke-opacity:1;stroke-dasharray:none;marker-end:url(#Arrow1Lend)"
         d="m 340,-115 -180,0"
         id="path4819"
         inkscape:connector-curvature="0" />
      <g
         id="g5274"
         transform="translate(-77.179551,-428.94879)">
        <g
           word-spacing="normal"
           letter-spacing="normal"
           font-size-adjust="none"
           font-stretch="normal"
           font-weight="normal"
           font-variant="normal"
           font-style="normal"
           stroke-miterlimit="10.433"
           xml:space="preserve"
           transform="matrix(1.0928571,0,0,-1.0928571,-191.25,742.5)"
           id="g5276"
           style="font-style:normal;font-variant:normal;font-weight:normal;font-stretch:normal;letter-spacing:normal;word-spacing:normal;text-anchor:start;fill:none;stroke:#000000;stroke-linecap:butt;stroke-linejoin:miter;stroke-miterlimit:10.43299961;stroke-opacity:1;stroke-dasharray:none;stroke-dashoffset:0"><path
             id="path5278"
             d="m 489.55,436.09 0,0.08 0,0.07 0,0.07 0,0.07 0,0.07 0,0.06 -0.01,0.07 0,0.06 0,0.06 -0.01,0.06 0,0.05 0,0.05 -0.01,0.06 0,0.05 -0.02,0.09 -0.01,0.09 -0.02,0.08 -0.03,0.08 -0.02,0.07 -0.03,0.06 -0.04,0.06 -0.03,0.06 -0.05,0.04 -0.04,0.05 -0.06,0.04 -0.05,0.03 -0.06,0.03 -0.07,0.03 -0.08,0.02 -0.08,0.02 -0.08,0.02 -0.1,0.01 -0.1,0.01 -0.05,0.01 -0.05,0 -0.06,0 -0.06,0.01 -0.06,0 -0.06,0 -0.06,0 -0.07,0 -0.06,0.01 -0.07,0 -0.08,0 -0.07,0 h -27.41 c -0.84,0 -1.73,0 -1.73,-1 0,-1 0.89,-1 1.73,-1 h 27.16 v -24.86 h -27.09 c -0.8,0 -1.8,0 -1.8,-0.99 0,-1 0.89,-1 1.73,-1 h 27.41 c 1.59,0 1.75,0.14 1.75,1.8 z"
             inkscape:connector-curvature="0"
             style="fill:#000000;stroke-width:0" /><path
             id="path5280"
             d="m 460.46,401.37 -0.07,0 -0.08,0 -0.15,0 -0.15,-0.01 -0.15,0 -0.08,-0.01 -0.07,-0.01 -0.08,-0.01 -0.07,-0.01 -0.07,-0.02 -0.08,-0.01 -0.07,-0.02 -0.06,-0.02 -0.07,-0.03 -0.06,-0.03 -0.06,-0.03 -0.06,-0.03 -0.05,-0.04 -0.05,-0.04 -0.05,-0.05 -0.04,-0.05 -0.02,-0.03 -0.02,-0.03 -0.02,-0.03 -0.02,-0.03 -0.01,-0.03 -0.02,-0.03 -0.01,-0.03 -0.01,-0.04 -0.01,-0.04 -0.01,-0.03 -0.01,-0.04 -0.01,-0.04 0,-0.04 -0.01,-0.05 0,-0.04 0,-0.05 c 0,-1 0.89,-1 1.73,-1 h 27.96 c 0.84,0 1.75,0 1.75,1 0,1 -0.96,1 -1.8,1 z"
             inkscape:connector-curvature="0"
             style="fill:#000000;stroke-width:0" /></g>      </g>
    </g>
    <g
       id="g5333"
       transform="matrix(-0.42158781,0.42158781,0.42158781,0.42158781,318.74087,119.87733)">
      <path
         inkscape:connector-curvature="0"
         id="path5335"
         d="m 340,-115 -180,0"
         style="fill:none;stroke:#000000;stroke-width:2;stroke-linecap:butt;stroke-linejoin:miter;stroke-miterlimit:4;stroke-opacity:1;stroke-dasharray:none;marker-end:url(#Arrow1Lend)"
         sodipodi:nodetypes="cc" />
      <g
         transform="translate(-77.179551,-428.94879)"
         id="g5337">
        <g
           style="font-style:normal;font-variant:normal;font-weight:normal;font-stretch:normal;letter-spacing:normal;word-spacing:normal;text-anchor:start;fill:none;stroke:#000000;stroke-linecap:butt;stroke-linejoin:miter;stroke-miterlimit:10.43299961;stroke-opacity:1;stroke-dasharray:none;stroke-dashoffset:0"
           id="g5339"
           transform="matrix(1.0928571,0,0,-1.0928571,-191.25,742.5)"
           xml:space="preserve"
           stroke-miterlimit="10.433"
           font-style="normal"
           font-variant="normal"
           font-weight="normal"
           font-stretch="normal"
           font-size-adjust="none"
           letter-spacing="normal"
           word-spacing="normal"><path
             style="fill:#000000;stroke-width:0"
             inkscape:connector-curvature="0"
             d="m 489.55,436.09 0,0.08 0,0.07 0,0.07 0,0.07 0,0.07 0,0.06 -0.01,0.07 0,0.06 0,0.06 -0.01,0.06 0,0.05 0,0.05 -0.01,0.06 0,0.05 -0.02,0.09 -0.01,0.09 -0.02,0.08 -0.03,0.08 -0.02,0.07 -0.03,0.06 -0.04,0.06 -0.03,0.06 -0.05,0.04 -0.04,0.05 -0.06,0.04 -0.05,0.03 -0.06,0.03 -0.07,0.03 -0.08,0.02 -0.08,0.02 -0.08,0.02 -0.1,0.01 -0.1,0.01 -0.05,0.01 -0.05,0 -0.06,0 -0.06,0.01 -0.06,0 -0.06,0 -0.06,0 -0.07,0 -0.06,0.01 -0.07,0 -0.08,0 -0.07,0 h -27.41 c -0.84,0 -1.73,0 -1.73,-1 0,-1 0.89,-1 1.73,-1 h 27.16 v -24.86 h -27.09 c -0.8,0 -1.8,0 -1.8,-0.99 0,-1 0.89,-1 1.73,-1 h 27.41 c 1.59,0 1.75,0.14 1.75,1.8 z"
             id="path5341" /><path
             style="fill:#000000;stroke-width:0"
             inkscape:connector-curvature="0"
             d="m 460.46,401.37 -0.07,0 -0.08,0 -0.15,0 -0.15,-0.01 -0.15,0 -0.08,-0.01 -0.07,-0.01 -0.08,-0.01 -0.07,-0.01 -0.07,-0.02 -0.08,-0.01 -0.07,-0.02 -0.06,-0.02 -0.07,-0.03 -0.06,-0.03 -0.06,-0.03 -0.06,-0.03 -0.05,-0.04 -0.05,-0.04 -0.05,-0.05 -0.04,-0.05 -0.02,-0.03 -0.02,-0.03 -0.02,-0.03 -0.02,-0.03 -0.01,-0.03 -0.02,-0.03 -0.01,-0.03 -0.01,-0.04 -0.01,-0.04 -0.01,-0.03 -0.01,-0.04 -0.01,-0.04 0,-0.04 -0.01,-0.05 0,-0.04 0,-0.05 c 0,-1 0.89,-1 1.73,-1 h 27.96 c 0.84,0 1.75,0 1.75,1 0,1 -0.96,1 -1.8,1 z"
             id="path5343" /></g>      </g>
    </g>
    <g
       transform="matrix(0.5962152,0,0,0.5962152,22.322782,171.88432)"
       id="g3095">
      <g
         style="font-style:normal;font-variant:normal;font-weight:normal;font-stretch:normal;letter-spacing:normal;word-spacing:normal;text-anchor:start;fill:none;stroke:#000000;stroke-linecap:butt;stroke-linejoin:miter;stroke-miterlimit:10.43299961;stroke-opacity:1;stroke-dasharray:none;stroke-dashoffset:0"
         id="g3097"
         transform="matrix(1.0928571,0,0,-1.0928571,-191.25,742.5)"
         xml:space="preserve"
         stroke-miterlimit="10.433"
         font-style="normal"
         font-variant="normal"
         font-weight="normal"
         font-stretch="normal"
         font-size-adjust="none"
         letter-spacing="normal"
         word-spacing="normal"><path
           style="fill:#000000;stroke-width:0"
           inkscape:connector-curvature="0"
           d="m 474.16,436.34 0.04,0.16 0.04,0.16 0.04,0.15 0.04,0.15 0.04,0.13 0.05,0.13 0.05,0.13 0.05,0.11 0.06,0.12 0.06,0.1 0.08,0.1 0.08,0.09 0.09,0.09 0.1,0.08 0.11,0.08 0.12,0.07 0.13,0.06 0.15,0.06 0.16,0.06 0.18,0.05 0.09,0.02 0.1,0.02 0.1,0.02 0.11,0.02 0.11,0.02 0.11,0.02 0.12,0.02 0.13,0.01 0.13,0.01 0.14,0.02 0.14,0.01 0.14,0.01 0.15,0.01 0.16,0.01 0.16,0.01 0.17,0.01 0.17,0 0.18,0.01 0.18,0 0.19,0.01 0.2,0 0.2,0 0.21,0 0.22,0 c 1.49,0 1.89,0 1.89,0.96 0,0.59 -0.54,0.59 -0.79,0.59 -1.66,0 -5.74,-0.16 -7.38,-0.16 -1.5,0 -5.14,0.16 -6.62,0.16 -0.36,0 -0.96,0 -0.96,-1 0,-0.55 0.46,-0.55 1.39,-0.55 0.11,0 1.05,0 1.91,-0.09 0.89,-0.11 1.34,-0.16 1.34,-0.8 0,-0.2 -0.06,-0.36 -0.2,-0.95 l -6.67,-26.75 c -0.5,-1.95 -0.61,-2.34 -4.55,-2.34 -0.84,0 -1.34,0 -1.34,-1 0,-0.55 0.45,-0.55 1.34,-0.55 h 23.08 c 1.19,0 1.23,0 1.55,0.84 l 3.92,10.77 c 0.2,0.55 0.2,0.64 0.2,0.7 0,0.19 -0.14,0.55 -0.59,0.55 -0.46,0 -0.5,-0.25 -0.85,-1.05 -1.7,-4.59 -3.89,-10.26 -12.51,-10.26 h -4.67 c -0.71,0 -0.8,0 -1.1,0.04 -0.5,0.05 -0.65,0.1 -0.65,0.5 0,0.14 0,0.25 0.25,1.14 z"
           id="path3100" /><path
           style="fill:#000000;stroke-width:0"
           inkscape:connector-curvature="0"
           d="m 502.68,421.42 -0.12,0.05 -0.11,0.05 -0.12,0.04 -0.12,0.05 -0.11,0.04 -0.11,0.04 -0.12,0.03 -0.11,0.04 -0.1,0.03 -0.11,0.03 -0.11,0.03 -0.1,0.02 -0.1,0.03 -0.1,0.02 -0.1,0.02 -0.1,0.02 -0.1,0.01 -0.09,0.02 -0.09,0.01 -0.09,0.01 -0.09,0.02 -0.09,0.01 -0.08,0 -0.08,0.01 -0.08,0.01 -0.08,0 -0.07,0.01 -0.08,0 -0.07,0 -0.07,0 -0.06,0 -0.07,0 v -0.96 c 1.22,0 2.21,-0.54 2.66,-0.85 l -6.6,-20.34 c -1.14,2.12 -1.21,5.67 -1.21,9.72 0,2.72 0,5.43 0.56,7.56 0.9,3.42 3.48,3.91 4.59,3.91 v 0.96 c -1.84,0 -4.42,-0.73 -6.06,-3.54 -1.67,-2.86 -1.81,-6.55 -1.81,-9.35 0,-1.84 0,-8.53 3.37,-11.07 -0.17,-0.49 -0.83,-2.3 -0.83,-2.69 0,-0.55 0.46,-0.86 0.83,-0.86 0.64,0 0.78,0.45 1.02,1.08 l 0.45,1.53 c 0.53,-0.25 1.64,-0.67 3.03,-0.67 v 0.98 c -0.97,0 -1.9,0.38 -2.61,0.88 0.03,0.14 0.14,0.37 0.17,0.54 l 6.41,19.86 c 1.19,-2.08 1.19,-5.78 1.19,-9.12 0,-6.27 -0.31,-8.99 -2.02,-10.8 -0.14,-0.17 -1.33,-1.36 -3.14,-1.36 v -0.98 c 1.99,0 4.64,0.84 6.21,3.73 1.43,2.64 1.67,5.64 1.67,8.95 0,1.99 0,8.58 -3.38,11.3 0.17,0.48 0.83,2.3 0.83,2.67 0,0.56 -0.45,0.88 -0.83,0.88 -0.62,0 -0.76,-0.46 -1.01,-1.08 z"
           id="path3102" /></g>    </g>
    <g
       id="g3228"
       transform="matrix(0.5962152,0,0,0.5962152,-79.724364,66.029437)">
      <g
         word-spacing="normal"
         letter-spacing="normal"
         font-size-adjust="none"
         font-stretch="normal"
         font-weight="normal"
         font-variant="normal"
         font-style="normal"
         stroke-miterlimit="10.433"
         xml:space="preserve"
         transform="matrix(1.0928571,0,0,-1.0928571,-191.25,742.5)"
         id="g3230"
         style="font-style:normal;font-variant:normal;font-weight:normal;font-stretch:normal;letter-spacing:normal;word-spacing:normal;text-anchor:start;fill:none;stroke:#000000;stroke-linecap:butt;stroke-linejoin:miter;stroke-miterlimit:10.43299961;stroke-opacity:1;stroke-dasharray:none;stroke-dashoffset:0"><path
           id="path3232"
           d="m 474.16,436.34 0.04,0.16 0.04,0.16 0.04,0.15 0.04,0.15 0.04,0.13 0.05,0.13 0.05,0.13 0.05,0.11 0.06,0.12 0.06,0.1 0.08,0.1 0.08,0.09 0.09,0.09 0.1,0.08 0.11,0.08 0.12,0.07 0.13,0.06 0.15,0.06 0.16,0.06 0.18,0.05 0.09,0.02 0.1,0.02 0.1,0.02 0.11,0.02 0.11,0.02 0.11,0.02 0.12,0.02 0.13,0.01 0.13,0.01 0.14,0.02 0.14,0.01 0.14,0.01 0.15,0.01 0.16,0.01 0.16,0.01 0.17,0.01 0.17,0 0.18,0.01 0.18,0 0.19,0.01 0.2,0 0.2,0 0.21,0 0.22,0 c 1.49,0 1.89,0 1.89,0.96 0,0.59 -0.54,0.59 -0.79,0.59 -1.66,0 -5.74,-0.16 -7.38,-0.16 -1.5,0 -5.14,0.16 -6.62,0.16 -0.36,0 -0.96,0 -0.96,-1 0,-0.55 0.46,-0.55 1.39,-0.55 0.11,0 1.05,0 1.91,-0.09 0.89,-0.11 1.34,-0.16 1.34,-0.8 0,-0.2 -0.06,-0.36 -0.2,-0.95 l -6.67,-26.75 c -0.5,-1.95 -0.61,-2.34 -4.55,-2.34 -0.84,0 -1.34,0 -1.34,-1 0,-0.55 0.45,-0.55 1.34,-0.55 h 23.08 c 1.19,0 1.23,0 1.55,0.84 l 3.92,10.77 c 0.2,0.55 0.2,0.64 0.2,0.7 0,0.19 -0.14,0.55 -0.59,0.55 -0.46,0 -0.5,-0.25 -0.85,-1.05 -1.7,-4.59 -3.89,-10.26 -12.51,-10.26 h -4.67 c -0.71,0 -0.8,0 -1.1,0.04 -0.5,0.05 -0.65,0.1 -0.65,0.5 0,0.14 0,0.25 0.25,1.14 z"
           inkscape:connector-curvature="0"
           style="fill:#000000;stroke-width:0" /><path
           id="path3234"
           d="m 505.12,422.81 -0.02,0.05 -0.02,0.05 -0.01,0.04 -0.02,0.05 -0.02,0.04 -0.02,0.05 -0.02,0.04 -0.01,0.03 -0.02,0.04 -0.02,0.04 -0.02,0.03 -0.02,0.03 -0.02,0.03 -0.03,0.03 -0.02,0.03 -0.02,0.02 -0.03,0.03 -0.03,0.02 -0.03,0.02 -0.03,0.02 -0.03,0.01 -0.03,0.02 -0.04,0.01 -0.04,0.02 -0.04,0.01 -0.04,0.01 -0.05,0.01 -0.05,0 -0.05,0.01 -0.05,0 -0.06,0 -0.06,0.01 c -0.67,0 -0.76,-0.25 -0.98,-0.8 l -8.05,-20.39 c -0.34,-0.88 -0.94,-2.41 -4.08,-2.41 v -1.25 c 1.19,0.11 2.41,0.14 3.6,0.14 1.39,0 3.97,-0.14 4.18,-0.14 v 1.25 c -1.53,0 -2.51,0.7 -2.51,1.67 0,0.28 0.03,0.36 0.17,0.71 l 1.67,4.28 0.5,1.26 4.46,11.32 4.45,-11.32 h -8.91 l -0.5,-1.26 h 9.91 l 2.01,-5.08 c 0.07,-0.19 0.18,-0.42 0.18,-0.59 0,-0.99 -1.88,-0.99 -2.83,-0.99 v -1.25 c 1.75,0.06 3.98,0.14 5.2,0.14 1.64,0 4.25,-0.11 4.63,-0.14 v 1.25 h -0.69 c -2.34,0 -2.58,0.36 -2.97,1.33 z"
           inkscape:connector-curvature="0"
           style="fill:#000000;stroke-width:0" /></g>    </g>
    <g
       id="g3368"
       transform="matrix(0.5962152,0,0,0.5962152,116.75447,66.029437)">
      <g
         id="g3370"
         transform="matrix(1.0928571,0,0,-1.0928571,-191.25,742.5)"
         xml:space="preserve"
         stroke-miterlimit="10.433"
         font-style="normal"
         font-variant="normal"
         font-weight="normal"
         font-stretch="normal"
         font-size-adjust="none"
         letter-spacing="normal"
         word-spacing="normal"
         style="font-style:normal;font-variant:normal;font-weight:normal;font-stretch:normal;letter-spacing:normal;word-spacing:normal;text-anchor:start;fill:none;stroke:#000000;stroke-linecap:butt;stroke-linejoin:miter;stroke-miterlimit:10.43299961;stroke-opacity:1;stroke-dasharray:none;stroke-dashoffset:0"><path
           d="m 474.16,436.34 0.04,0.16 0.04,0.16 0.04,0.15 0.04,0.15 0.04,0.13 0.05,0.13 0.05,0.13 0.05,0.11 0.06,0.12 0.06,0.1 0.08,0.1 0.08,0.09 0.09,0.09 0.1,0.08 0.11,0.08 0.12,0.07 0.13,0.06 0.15,0.06 0.16,0.06 0.18,0.05 0.09,0.02 0.1,0.02 0.1,0.02 0.11,0.02 0.11,0.02 0.11,0.02 0.12,0.02 0.13,0.01 0.13,0.01 0.14,0.02 0.14,0.01 0.14,0.01 0.15,0.01 0.16,0.01 0.16,0.01 0.17,0.01 0.17,0 0.18,0.01 0.18,0 0.19,0.01 0.2,0 0.2,0 0.21,0 0.22,0 c 1.49,0 1.89,0 1.89,0.96 0,0.59 -0.54,0.59 -0.79,0.59 -1.66,0 -5.74,-0.16 -7.38,-0.16 -1.5,0 -5.14,0.16 -6.62,0.16 -0.36,0 -0.96,0 -0.96,-1 0,-0.55 0.46,-0.55 1.39,-0.55 0.11,0 1.05,0 1.91,-0.09 0.89,-0.11 1.34,-0.16 1.34,-0.8 0,-0.2 -0.06,-0.36 -0.2,-0.95 l -6.67,-26.75 c -0.5,-1.95 -0.61,-2.34 -4.55,-2.34 -0.84,0 -1.34,0 -1.34,-1 0,-0.55 0.45,-0.55 1.34,-0.55 h 23.08 c 1.19,0 1.23,0 1.55,0.84 l 3.92,10.77 c 0.2,0.55 0.2,0.64 0.2,0.7 0,0.19 -0.14,0.55 -0.59,0.55 -0.46,0 -0.5,-0.25 -0.85,-1.05 -1.7,-4.59 -3.89,-10.26 -12.51,-10.26 h -4.67 c -0.71,0 -0.8,0 -1.1,0.04 -0.5,0.05 -0.65,0.1 -0.65,0.5 0,0.14 0,0.25 0.25,1.14 z"
           id="path3372"
           inkscape:connector-curvature="0"
           style="fill:#000000;stroke-width:0" /><path
           d="m 491.57,422.56 v -1.25 h 0.83 c 2.69,0 2.75,-0.35 2.75,-1.58 v -18.14 c 0,-1.19 -0.06,-1.58 -2.75,-1.58 h -0.83 v -1.25 h 14.77 c 4.92,0 8.5,3.06 8.5,6.38 0,3.03 -3.06,5.61 -7.31,6.06 3.42,0.62 6.28,2.75 6.28,5.44 0,3.14 -3.67,5.92 -8.52,5.92 l -0.23,-1.25 c 3.45,0 5.26,-2.47 5.26,-4.67 0,-2.47 -2.34,-5.02 -6.34,-5.02 h -5.75 v -0.98 h 7.42 c 3.69,0 5.61,-2.99 5.61,-5.43 0,-2.57 -2.3,-5.2 -6.14,-5.2 h -5.22 c -1.64,0 -1.67,0.28 -1.67,1.36 v 9.27 0.98 8.33 c 0,1.08 0.03,1.36 1.67,1.36 h 5.16 l 0.23,1.25 z"
           id="path3374"
           inkscape:connector-curvature="0"
           style="fill:#000000;stroke-width:0" /></g>    </g>
    <g
       id="g3516"
       transform="matrix(0.5962152,0,0,0.5962152,9.3764991,-50.487081)">
      <g
         word-spacing="normal"
         letter-spacing="normal"
         font-size-adjust="none"
         font-stretch="normal"
         font-weight="normal"
         font-variant="normal"
         font-style="normal"
         stroke-miterlimit="10.433"
         xml:space="preserve"
         transform="matrix(1.0928571,0,0,-1.0928571,-191.25,742.5)"
         id="g3518"
         style="font-style:normal;font-variant:normal;font-weight:normal;font-stretch:normal;letter-spacing:normal;word-spacing:normal;text-anchor:start;fill:none;stroke:#000000;stroke-linecap:butt;stroke-linejoin:miter;stroke-miterlimit:10.43299961;stroke-opacity:1;stroke-dasharray:none;stroke-dashoffset:0"><path
           id="path3520"
           d="m 474.16,436.34 0.04,0.16 0.04,0.16 0.04,0.15 0.04,0.15 0.04,0.13 0.05,0.13 0.05,0.13 0.05,0.11 0.06,0.12 0.06,0.1 0.08,0.1 0.08,0.09 0.09,0.09 0.1,0.08 0.11,0.08 0.12,0.07 0.13,0.06 0.15,0.06 0.16,0.06 0.18,0.05 0.09,0.02 0.1,0.02 0.1,0.02 0.11,0.02 0.11,0.02 0.11,0.02 0.12,0.02 0.13,0.01 0.13,0.01 0.14,0.02 0.14,0.01 0.14,0.01 0.15,0.01 0.16,0.01 0.16,0.01 0.17,0.01 0.17,0 0.18,0.01 0.18,0 0.19,0.01 0.2,0 0.2,0 0.21,0 0.22,0 c 1.49,0 1.89,0 1.89,0.96 0,0.59 -0.54,0.59 -0.79,0.59 -1.66,0 -5.74,-0.16 -7.38,-0.16 -1.5,0 -5.14,0.16 -6.62,0.16 -0.36,0 -0.96,0 -0.96,-1 0,-0.55 0.46,-0.55 1.39,-0.55 0.11,0 1.05,0 1.91,-0.09 0.89,-0.11 1.34,-0.16 1.34,-0.8 0,-0.2 -0.06,-0.36 -0.2,-0.95 l -6.67,-26.75 c -0.5,-1.95 -0.61,-2.34 -4.55,-2.34 -0.84,0 -1.34,0 -1.34,-1 0,-0.55 0.45,-0.55 1.34,-0.55 h 23.08 c 1.19,0 1.23,0 1.55,0.84 l 3.92,10.77 c 0.2,0.55 0.2,0.64 0.2,0.7 0,0.19 -0.14,0.55 -0.59,0.55 -0.46,0 -0.5,-0.25 -0.85,-1.05 -1.7,-4.59 -3.89,-10.26 -12.51,-10.26 h -4.67 c -0.71,0 -0.8,0 -1.1,0.04 -0.5,0.05 -0.65,0.1 -0.65,0.5 0,0.14 0,0.25 0.25,1.14 z"
           inkscape:connector-curvature="0"
           style="fill:#000000;stroke-width:0" /><path
           id="path3522"
           d="m 505.12,422.81 -0.02,0.05 -0.02,0.05 -0.01,0.04 -0.02,0.05 -0.02,0.04 -0.02,0.05 -0.02,0.04 -0.01,0.03 -0.02,0.04 -0.02,0.04 -0.02,0.03 -0.02,0.03 -0.02,0.03 -0.03,0.03 -0.02,0.03 -0.02,0.02 -0.03,0.03 -0.03,0.02 -0.03,0.02 -0.03,0.02 -0.03,0.01 -0.03,0.02 -0.04,0.01 -0.04,0.02 -0.04,0.01 -0.04,0.01 -0.05,0.01 -0.05,0 -0.05,0.01 -0.05,0 -0.06,0 -0.06,0.01 c -0.67,0 -0.76,-0.25 -0.98,-0.8 l -8.05,-20.39 c -0.34,-0.88 -0.94,-2.41 -4.08,-2.41 v -1.25 c 1.19,0.11 2.41,0.14 3.6,0.14 1.39,0 3.97,-0.14 4.18,-0.14 v 1.25 c -1.53,0 -2.51,0.7 -2.51,1.67 0,0.28 0.03,0.36 0.17,0.71 l 1.67,4.28 0.5,1.26 4.46,11.32 4.45,-11.32 h -8.91 l -0.5,-1.26 h 9.91 l 2.01,-5.08 c 0.07,-0.19 0.18,-0.42 0.18,-0.59 0,-0.99 -1.88,-0.99 -2.83,-0.99 v -1.25 c 1.75,0.06 3.98,0.14 5.2,0.14 1.64,0 4.25,-0.11 4.63,-0.14 v 1.25 h -0.69 c -2.34,0 -2.58,0.36 -2.97,1.33 z"
           inkscape:connector-curvature="0"
           style="fill:#000000;stroke-width:0" /><path
           id="path3524"
           d="m 520.97,422.56 v -1.25 h 0.83 c 2.69,0 2.75,-0.35 2.75,-1.58 v -18.14 c 0,-1.19 -0.06,-1.58 -2.75,-1.58 h -0.83 v -1.25 h 14.77 c 4.92,0 8.5,3.06 8.5,6.38 0,3.03 -3.06,5.61 -7.31,6.06 3.42,0.62 6.28,2.75 6.28,5.44 0,3.14 -3.68,5.92 -8.52,5.92 l -0.23,-1.25 c 3.45,0 5.26,-2.47 5.26,-4.67 0,-2.47 -2.34,-5.02 -6.34,-5.02 h -5.75 v -0.98 h 7.42 c 3.69,0 5.61,-2.99 5.61,-5.43 0,-2.57 -2.3,-5.2 -6.14,-5.2 h -5.22 c -1.64,0 -1.67,0.28 -1.67,1.36 v 9.27 0.98 8.33 c 0,1.08 0.03,1.36 1.67,1.36 h 5.16 l 0.23,1.25 z"
           inkscape:connector-curvature="0"
           style="fill:#000000;stroke-width:0" /></g>    </g>
  </g>
</svg>
