<?xml version="1.0" encoding="UTF-8" standalone="no"?>
<!-- Created with Inkscape (http://www.inkscape.org/) -->

<svg
   xmlns:dc="http://purl.org/dc/elements/1.1/"
   xmlns:cc="http://creativecommons.org/ns#"
   xmlns:rdf="http://www.w3.org/1999/02/22-rdf-syntax-ns#"
   xmlns:svg="http://www.w3.org/2000/svg"
   xmlns="http://www.w3.org/2000/svg"
   xmlns:xlink="http://www.w3.org/1999/xlink"
   xmlns:sodipodi="http://sodipodi.sourceforge.net/DTD/sodipodi-0.dtd"
   xmlns:inkscape="http://www.inkscape.org/namespaces/inkscape"
   width="400.11996"
   height="122.8746"
   preserveAspectRatio="xMinYMin meet"
   viewBox="0 0 399.98226 122.859"
   id="svg2"
   version="1.1"
   inkscape:version="0.48.4 r9939"
   sodipodi:docname="lwrite.svg">
  <sodipodi:namedview
     id="base"
     pagecolor="#ffffff"
     bordercolor="#666666"
     borderopacity="1.0"
     inkscape:pageopacity="0.0"
     inkscape:pageshadow="2"
     inkscape:zoom="1"
     inkscape:cx="217.86373"
     inkscape:cy="-14.677068"
     inkscape:document-units="px"
     inkscape:current-layer="layer1"
     showgrid="false"
     inkscape:window-width="1120"
     inkscape:window-height="720"
     inkscape:window-x="270"
     inkscape:window-y="148"
     inkscape:window-maximized="0"
     showguides="false"
     inkscape:guide-bbox="true"
     inkscape:snap-grids="true"
     inkscape:snap-to-guides="true"
     inkscape:snap-bbox="true"
     inkscape:bbox-paths="true"
     fit-margin-top="10"
     fit-margin-bottom="10"
     fit-margin-left="0"
     fit-margin-right="0">
    <sodipodi:guide
       position="-71.081163,-620.28274"
       orientation="0,1052.3622"
       id="guide3064" />
    <sodipodi:guide
       position="981.28104,-620.28274"
       orientation="-744.09448,0"
       id="guide3066" />
    <sodipodi:guide
       position="-71.081163,-620.28274"
       orientation="0,1052.3622"
       id="guide3072" />
    <sodipodi:guide
       position="981.28104,-620.28274"
       orientation="-744.09448,0"
       id="guide3074" />
    <sodipodi:guide
       position="-71.081163,-620.28274"
       orientation="0,1052.3622"
       id="guide3080" />
    <sodipodi:guide
       position="981.28104,-620.28274"
       orientation="-744.09448,0"
       id="guide3082" />
    <inkscape:grid
       type="xygrid"
       id="grid3070"
       empspacing="5"
       visible="true"
       enabled="true"
       snapvisiblegridlinesonly="true"
       originx="0.0049704739px"
       originy="0.017365261px" />
    <sodipodi:guide
       orientation="0,1"
       position="63.918837,24.717252"
       id="guide3079" />
  </sodipodi:namedview>
  <defs
     id="defs4">
    <marker
       inkscape:stockid="Arrow2Mstart"
       orient="auto"
       refY="0"
       refX="0"
       id="Arrow2Mstart"
       style="overflow:visible">
      <path
         id="path4274"
         style="font-size:12px;fill-rule:evenodd;stroke-width:0.625;stroke-linejoin:round"
         d="M 8.7185878,4.0337352 -2.2072895,0.01601326 8.7185884,-4.0017078 c -1.7454984,2.3720609 -1.7354408,5.6174519 -6e-7,8.035443 z"
         transform="scale(0.6,0.6)"
         inkscape:connector-curvature="0" />
    </marker>
    <marker
       inkscape:stockid="Arrow1Lstart"
       orient="auto"
       refY="0"
       refX="0"
       id="Arrow1Lstart"
       style="overflow:visible">
      <path
         id="path4250"
         d="M 0,0 5,-5 -12.5,0 5,5 0,0 z"
         style="fill-rule:evenodd;stroke:#000000;stroke-width:1pt;marker-start:none"
         transform="matrix(0.8,0,0,0.8,10,0)"
         inkscape:connector-curvature="0" />
    </marker>
    <marker
       inkscape:stockid="Arrow1Mstart"
       orient="auto"
       refY="0"
       refX="0"
       id="Arrow1Mstart"
       style="overflow:visible">
      <path
         id="path4256"
         d="M 0,0 5,-5 -12.5,0 5,5 0,0 z"
         style="fill-rule:evenodd;stroke:#000000;stroke-width:1pt;marker-start:none"
         transform="matrix(0.4,0,0,0.4,4,0)"
         inkscape:connector-curvature="0" />
    </marker>
    <marker
       inkscape:stockid="Arrow1Mend"
       orient="auto"
       refY="0"
       refX="0"
       id="Arrow1Mend"
       style="overflow:visible">
      <path
         id="path4259"
         d="M 0,0 5,-5 -12.5,0 5,5 0,0 z"
         style="fill-rule:evenodd;stroke:#000000;stroke-width:1pt;marker-start:none"
         transform="matrix(-0.4,0,0,-0.4,-4,0)"
         inkscape:connector-curvature="0" />
    </marker>
    <marker
       inkscape:stockid="Arrow1Lend"
       orient="auto"
       refY="0"
       refX="0"
       id="Arrow1Lend"
       style="overflow:visible">
      <path
         id="path4253"
         d="M 0,0 5,-5 -12.5,0 5,5 0,0 z"
         style="fill-rule:evenodd;stroke:#000000;stroke-width:1pt;marker-start:none"
         transform="matrix(-0.8,0,0,-0.8,-10,0)"
         inkscape:connector-curvature="0" />
    </marker>
    <inkscape:path-effect
       effect="skeletal"
       id="path-effect4165"
       is_visible="true"
       pattern="M 0,5 C 0,2.24 2.24,0 5,0 7.76,0 10,2.24 10,5 10,7.76 7.76,10 5,10 2.24,10 0,7.76 0,5 z"
       copytype="single_stretched"
       prop_scale="1"
       scale_y_rel="false"
       spacing="0"
       normal_offset="0"
       tang_offset="0"
       prop_units="false"
       vertical_pattern="false"
       fuse_tolerance="0" />
    <inkscape:path-effect
       effect="skeletal"
       id="path-effect4161"
       is_visible="true"
       pattern="M 0,0 0,10 10,5 z"
       copytype="single_stretched"
       prop_scale="1"
       scale_y_rel="false"
       spacing="0"
       normal_offset="0"
       tang_offset="0"
       prop_units="false"
       vertical_pattern="false"
       fuse_tolerance="0" />
    <radialGradient
       gradientTransform="matrix(-0.1008165,-0.08087232,1.0745309,-1.3395252,13.843287,784.79288)"
       gradientUnits="userSpaceOnUse"
       xlink:href="#linearGradient3294"
       id="radialGradient3300"
       fy="356.62274"
       fx="425.51019"
       r="143.34167"
       cy="356.62274"
       cx="425.51019" />
    <radialGradient
       gradientTransform="matrix(-1.2497569,1.3798305,-0.09628946,-0.07297448,674.3826,-70.590682)"
       gradientUnits="userSpaceOnUse"
       xlink:href="#linearGradient3284"
       id="radialGradient3290"
       fy="-158.17821"
       fx="284.4671"
       r="110.2972"
       cy="-158.17821"
       cx="284.4671" />
    <radialGradient
       gradientTransform="matrix(-0.1339874,-0.1146812,0.3079048,-0.3597394,444.23592,395.03849)"
       gradientUnits="userSpaceOnUse"
       xlink:href="#linearGradient3274"
       id="radialGradient3280"
       fy="223.55537"
       fx="510.58469"
       r="132.28336"
       cy="223.55537"
       cx="510.58469" />
    <radialGradient
       gradientTransform="matrix(0.4055116,-0.03344012,0.1034174,4.3988695,177.23251,-1191.6649)"
       gradientUnits="userSpaceOnUse"
       xlink:href="#linearGradient3262"
       id="radialGradient3268"
       fy="357.33591"
       fx="354.51709"
       r="33.712105"
       cy="357.33591"
       cx="354.51709" />
    <radialGradient
       gradientTransform="matrix(-0.06556501,-0.05972176,1.6871024,-1.8521705,171.90774,540.51473)"
       gradientUnits="userSpaceOnUse"
       xlink:href="#linearGradient3242"
       id="radialGradient3248"
       fy="181.18982"
       fx="418.45551"
       r="63.068935"
       cy="181.18982"
       cx="418.45551" />
    <radialGradient
       gradientTransform="matrix(0.414705,0.3300575,-0.5059004,0.6356454,448.41009,-65.398074)"
       gradientUnits="userSpaceOnUse"
       xlink:href="#linearGradient3202"
       id="radialGradient3238"
       fy="382.14804"
       fx="283.50717"
       r="17.67668"
       cy="382.14804"
       cx="283.50717" />
    <radialGradient
       gradientTransform="matrix(0.414705,0.3300575,-0.5059004,0.6356454,346.95314,49.479585)"
       gradientUnits="userSpaceOnUse"
       xlink:href="#linearGradient3202"
       id="radialGradient3210"
       fy="390.45248"
       fx="289.44067"
       r="17.67668"
       cy="390.45248"
       cx="289.44067" />
    <radialGradient
       gradientTransform="matrix(1,0,0,0.9121621,0,32.654948)"
       gradientUnits="userSpaceOnUse"
       xlink:href="#linearGradient4966"
       id="radialGradient4972"
       fy="371.76376"
       fx="299.70135"
       r="76.696358"
       cy="371.76376"
       cx="299.70135" />
    <radialGradient
       gradientTransform="matrix(1,0,0,0.1854103,0,383.88493)"
       gradientUnits="userSpaceOnUse"
       xlink:href="#linearGradient4938"
       id="radialGradient4944"
       fy="471.26172"
       fx="233.8876"
       r="170.49393"
       cy="471.26172"
       cx="233.8876" />
    <radialGradient
       gradientTransform="matrix(0.6817439,0,0,0.5905355,-3.8523706,-28.935273)"
       gradientUnits="userSpaceOnUse"
       xlink:href="#linearGradient4898"
       id="radialGradient4892"
       fy="-108.96888"
       fx="20.951529"
       r="266.76535"
       cy="-108.96888"
       cx="20.951529" />
    <linearGradient
       id="linearGradient4876">
      <stop
         offset="0"
         style="stop-color:#d3d2e8;stop-opacity:1"
         id="stop4878" />
      <stop
         offset="1"
         style="stop-color:#5955a9;stop-opacity:0.99159664"
         id="stop4880" />
    </linearGradient>
    <linearGradient
       id="linearGradient4898">
      <stop
         offset="0"
         style="stop-color:#bab8db;stop-opacity:1"
         id="stop4900" />
      <stop
         offset="1"
         style="stop-color:#5955a9;stop-opacity:0.99159664"
         id="stop4902" />
    </linearGradient>
    <linearGradient
       id="linearGradient4938">
      <stop
         offset="0"
         style="stop-color:#000000;stop-opacity:1"
         id="stop4940" />
      <stop
         offset="1"
         style="stop-color:#000000;stop-opacity:0"
         id="stop4942" />
    </linearGradient>
    <linearGradient
       id="linearGradient4966">
      <stop
         offset="0"
         style="stop-color:#b6b3d8;stop-opacity:1"
         id="stop4968" />
      <stop
         offset="1"
         style="stop-color:#b6b3d8;stop-opacity:0"
         id="stop4970" />
    </linearGradient>
    <linearGradient
       id="linearGradient3202">
      <stop
         offset="0"
         style="stop-color:#2b2b2b;stop-opacity:1"
         id="stop3204" />
      <stop
         offset="0.5"
         style="stop-color:#828383;stop-opacity:1"
         id="stop3250" />
      <stop
         offset="1"
         style="stop-color:#dadbdb;stop-opacity:1"
         id="stop3206" />
    </linearGradient>
    <linearGradient
       id="linearGradient3242">
      <stop
         offset="0"
         style="stop-color:#282828;stop-opacity:1"
         id="stop3244" />
      <stop
         offset="0.39253417"
         style="stop-color:#808080;stop-opacity:1"
         id="stop3252" />
      <stop
         offset="1"
         style="stop-color:#d9d9d9;stop-opacity:1"
         id="stop3246" />
    </linearGradient>
    <linearGradient
       id="linearGradient3262">
      <stop
         offset="0"
         style="stop-color:#000000;stop-opacity:1"
         id="stop3264" />
      <stop
         offset="1"
         style="stop-color:#000000;stop-opacity:0"
         id="stop3266" />
    </linearGradient>
    <linearGradient
       id="linearGradient3274">
      <stop
         offset="0"
         style="stop-color:#000000;stop-opacity:1"
         id="stop3276" />
      <stop
         offset="1"
         style="stop-color:#000000;stop-opacity:0"
         id="stop3278" />
    </linearGradient>
    <linearGradient
       id="linearGradient3284">
      <stop
         offset="0"
         style="stop-color:#000000;stop-opacity:1"
         id="stop3286" />
      <stop
         offset="0.84845906"
         style="stop-color:#000000;stop-opacity:0.49803922"
         id="stop3292" />
      <stop
         offset="1"
         style="stop-color:#000000;stop-opacity:0"
         id="stop3288" />
    </linearGradient>
    <linearGradient
       id="linearGradient3294">
      <stop
         offset="0"
         style="stop-color:#6376e6;stop-opacity:1"
         id="stop3296" />
      <stop
         offset="0.50094414"
         style="stop-color:#222989;stop-opacity:1"
         id="stop3302" />
      <stop
         offset="1"
         style="stop-color:#00003d;stop-opacity:1"
         id="stop3298" />
    </linearGradient>
    <linearGradient
       id="grey_gradient"
       gradientTransform="scale(0.87745775,1.139656)"
       x1="26.63946"
       y1="9.8587685"
       x2="119.23651"
       y2="9.8587685"
       gradientUnits="userSpaceOnUse">
      <stop
         offset="0"
         style="stop-color:#dbdbdb;stop-opacity:1"
         id="stop3630-72-7" />
      <stop
         offset="1"
         style="stop-color:#757575;stop-opacity:1"
         id="stop3632-7-2" />
    </linearGradient>
    <marker
       inkscape:stockid="Arrow1MendE"
       orient="auto"
       refY="0"
       refX="0"
       id="Arrow1MendE"
       style="overflow:visible">
      <path
         id="path5117"
         d="M 0,0 5,-5 -12.5,0 5,5 0,0 z"
         style="fill:#008000;fill-rule:evenodd;stroke:#008000;stroke-width:1pt;marker-start:none"
         transform="matrix(-0.4,0,0,-0.4,-4,0)"
         inkscape:connector-curvature="0" />
    </marker>
    <marker
       inkscape:stockid="Arrow1MendE2"
       orient="auto"
       refY="0"
       refX="0"
       id="Arrow1MendE2"
       style="overflow:visible">
      <path
         id="path5331"
         d="M 0,0 5,-5 -12.5,0 5,5 0,0 z"
         style="fill:#5955a9;fill-rule:evenodd;stroke:#5955a9;stroke-width:1pt;marker-start:none"
         transform="matrix(-0.4,0,0,-0.4,-4,0)"
         inkscape:connector-curvature="0" />
    </marker>
    <marker
       inkscape:stockid="Arrow1Mstartx"
       orient="auto"
       refY="0"
       refX="0"
       id="Arrow1Mstartx"
       style="overflow:visible">
      <path
         id="path7862"
         d="M 0,0 5,-5 -12.5,0 5,5 0,0 z"
         style="fill:#5955a9;fill-rule:evenodd;stroke:#5955a9;stroke-width:1pt;marker-start:none"
         transform="matrix(0.4,0,0,0.4,4,0)"
         inkscape:connector-curvature="0" />
    </marker>
    <marker
       inkscape:stockid="Arrow1Mstartm"
       orient="auto"
       refY="0"
       refX="0"
       id="Arrow1Mstartm"
       style="overflow:visible">
      <path
         id="path7865"
         d="M 0,0 5,-5 -12.5,0 5,5 0,0 z"
         style="fill:#5955a9;fill-rule:evenodd;stroke:#5955a9;stroke-width:1pt;marker-start:none"
         transform="matrix(0.4,0,0,0.4,4,0)"
         inkscape:connector-curvature="0" />
    </marker>
    <marker
       inkscape:stockid="Arrow1Mstartx0"
       orient="auto"
       refY="0"
       refX="0"
       id="Arrow1Mstartx0"
       style="overflow:visible">
      <path
         id="path4202"
         d="M 0,0 5,-5 -12.5,0 5,5 0,0 z"
         style="fill:#5955a9;fill-rule:evenodd;stroke:#5955a9;stroke-width:1pt;marker-start:none"
         transform="matrix(0.4,0,0,0.4,4,0)"
         inkscape:connector-curvature="0" />
    </marker>
    <marker
       inkscape:stockid="Arrow1Mendj"
       orient="auto"
       refY="0"
       refX="0"
       id="Arrow1Mendj"
       style="overflow:visible">
      <path
         id="path4205"
         d="M 0,0 5,-5 -12.5,0 5,5 0,0 z"
         style="fill:#5955a9;fill-rule:evenodd;stroke:#5955a9;stroke-width:1pt;marker-start:none"
         transform="matrix(-0.4,0,0,-0.4,-4,0)"
         inkscape:connector-curvature="0" />
    </marker>
    <linearGradient
       inkscape:collect="always"
       xlink:href="#grey_gradient"
       id="linearGradient3503"
       gradientUnits="userSpaceOnUse"
       gradientTransform="scale(0.87745775,1.139656)"
       x1="26.63946"
       y1="9.8587685"
       x2="119.23651"
       y2="9.8587685" />
  </defs>
  <metadata
     id="metadata7">
    <rdf:RDF>
      <cc:Work
         rdf:about="">
        <dc:format>image/svg+xml</dc:format>
        <dc:type
           rdf:resource="http://purl.org/dc/dcmitype/StillImage" />
        <dc:title />
      </cc:Work>
    </rdf:RDF>
  </metadata>
  <g
     inkscape:label="Layer 1"
     inkscape:groupmode="layer"
     id="layer1"
     transform="translate(-71.072137,-309.20471)">
    <g
       id="g3205"
       transform="matrix(0.13734406,0,0,0.13734406,70.964823,333.78407)">
      <path
         style="fill:url(#radialGradient4944);fill-opacity:1;stroke:#7b0000;stroke-width:0;stroke-miterlimit:4;stroke-opacity:1;stroke-dasharray:none"
         id="path4912"
         transform="matrix(1.3434649,0,0,1.3934426,-81.886873,-193.70595)"
         d="m 404.38153,471.26172 c 0.0191,17.46096 -76.31924,31.61774 -170.49393,31.61774 -94.17469,0 -170.513005,-14.15678 -170.493923,-31.61774 -0.01908,-17.46096 76.319233,-31.61774 170.493923,-31.61774 94.17469,0 170.51301,14.15678 170.49393,31.61774 z"
         inkscape:connector-curvature="0" />
      <path
         style="fill:url(#radialGradient4892);fill-opacity:1;stroke:#7b0000;stroke-width:0;stroke-miterlimit:4;stroke-opacity:1;stroke-dasharray:none"
         id="path4864"
         transform="matrix(0.8855031,0,0,0.8392166,227.80221,232.6491)"
         d="m 277.19656,7.985198 c 0,157.044512 -119.43492,284.354252 -266.76535,284.354252 -147.33043,0 -266.76535,-127.30974 -266.76535,-284.354252 0,-157.044518 119.43492,-284.354248 266.76535,-284.354248 147.33043,0 266.76535,127.30973 266.76535,284.354248 z"
         inkscape:connector-curvature="0" />
      <path
         style="fill:url(#radialGradient4972);fill-opacity:1;stroke:#7b0000;stroke-width:0;stroke-miterlimit:4;stroke-opacity:1;stroke-dasharray:none"
         id="path4946"
         transform="matrix(1.4594595,0,0,1,-195.74111,-13.473684)"
         d="m 376.39771,371.76376 c 0.0118,38.64521 -34.32975,69.97908 -76.69636,69.97908 -42.3666,0 -76.7082,-31.33387 -76.69635,-69.97908 -0.0118,-38.64521 34.32975,-69.97908 76.69635,-69.97908 42.36661,0 76.70821,31.33387 76.69636,69.97908 l 0,0 z"
         inkscape:connector-curvature="0" />
      <path
         style="fill:#ffffff;fill-opacity:1;fill-rule:evenodd;stroke:#000000;stroke-width:0;stroke-linecap:butt;stroke-linejoin:miter;stroke-miterlimit:4;stroke-opacity:1;stroke-dasharray:none"
         id="path4839"
         d="m 120.52728,395.60181 c 0,0 21.0078,6.09989 48.97166,9.58704 11.32467,1.41221 54.41295,6.34818 87.44939,6.21863 0,0 40.23552,0.0457 62.44534,-3.10931 23.23898,-3.30118 36.40486,-7.51418 43.73209,-15.92171 0.19087,-2.00464 3.53663,-8.53911 -5.49654,-14.84065 -23.09426,-16.11057 -52.94998,-20.52042 -110.9411,-34.29249 -64.127,-16.1227 -83.29128,-31.56149 -92.8653,-42.73463 -9.07685,-11.19791 1.70382,-34.45383 53.37652,-45.86235 26.16241,-6.36659 123.60277,-7.5364 123.60277,-7.5364 -27.95505,-22.19469 -80.43759,-61.93067 -91.16526,-70.38102 -9.40866,-7.41134 -24.57035,-18.78483 -26.20016,-28.94842 -2.19861,-9.89378 13.37492,-14.65745 21.61972,-15.2071 26.56661,-1.83218 62.84376,1.28253 95.09012,7.69516 16.20882,3.22335 19.05466,2.74827 19.05466,2.74827 23.08547,1.09931 41.04083,-10.99307 40.12474,-36.46038 -0.18322,-25.833726 -26.01233,-46.548603 -54.59895,-47.453444 -26.92018,-0.852094 -93.25794,3.847576 -93.25794,3.847576 77.31798,15.939963 89.95772,20.007744 93.99081,29.314873 2.38183,5.49654 -3.9787,10.961515 -25.28408,9.893765 -23.19489,-1.16245 -70.72213,-6.77906 -70.72213,-6.77906 -45.25483,-6.962282 -76.76832,-13.558129 -90.50967,4.397231 -8.97739,11.730469 1.28253,26.016949 5.31332,34.444969 17.95537,31.33028 49.00385,52.82523 68.70674,67.97387 7.41341,5.69982 30.04774,18.32179 30.04774,18.32179 -70.35569,-19.23789 -126.42038,-8.42803 -161.964666,10.2602 -40.857604,24.18477 -33.868518,64.9968 30.963836,103.15172 38.29255,22.5358 57.35854,33.36185 120.05537,41.05922 36.6472,5.84342 42.10791,8.23438 41.82939,11.28471 -0.39214,4.29458 -43.37561,5.92204 -55.19029,6.73685 -30.05668,2.07287 -107.78947,2.59109 -108.17813,2.59109 z"
         inkscape:connector-curvature="0" />
      <rect
         style="fill:none;display:none"
         id="rect4772"
         y="0.20100001"
         x="0.171"
         height="512"
         width="512" />
      <g
         style="display:none"
         id="g4788">
        <g
           style="display:inline"
           id="g4790" />
      </g>
      <g
         style="display:none"
         id="g4806">
        <g
           style="display:inline"
           id="g4808">
          <path
             style="fill:#050505;display:none"
             id="path4810"
             d="m 349.098,256.651 c -0.265,-0.254 37.637,27.605 39.421,25.012 6.362,-9.252 82.046,-93.137 84.784,-116.236 0.242,-2.003 -0.516,-4.096 -0.516,-4.096 0,0 -1.19,-0.144 -6.325,-4.314 -2.692,-2.192 -5.483,-4.581 -5.483,-4.581 -16.054,0.998 -57.885,41.559 -111.062,103.568"
             inkscape:connector-curvature="0" />
        </g>
      </g>
      <g
         style="stroke:none"
         id="g4796">
        <g
           style="stroke:none"
           id="g4800" />
      </g>
      <g
         id="g4820">
        <path
           style="fill:#4d4d4d"
           id="path4824"
           d="m 279.476,404.243 c -0.007,-0.004 -7.446,-4.112 -16.804,-11.401 l 0,0 c -8.082,-6.285 -13.538,-12.214 -13.544,-12.22 l 0,0 -0.122,-0.133 3.646,-4.669 0.157,-0.205 0.169,0.197 c 0.017,0.01 5.4,6.295 13.725,12.78 l 0,0 c 7.913,6.157 16.594,10.586 16.612,10.595 l 0,0 0.229,0.117 -3.911,5.026 -0.157,-0.087 0,0 z m -16.542,-11.737 c 8.545,6.656 15.469,10.644 16.589,11.275 l 0,0 3.372,-4.334 c -1.423,-0.743 -9.253,-4.919 -16.453,-10.521 l 0,0 c -7.504,-5.845 -12.637,-11.533 -13.614,-12.645 l 0,0 -3.264,4.184 c 0.849,0.905 6.01,6.32 13.37,12.041 l 0,0 z"
           inkscape:connector-curvature="0" />
      </g>
      <g
         id="g4774" />
      <rect
         style="fill:url(#radialGradient3290);fill-opacity:1;stroke:#4a4a4a;stroke-width:0;stroke-miterlimit:4;stroke-opacity:1;stroke-dasharray:none"
         id="rect3282"
         y="112.05299"
         x="129.8893"
         height="389.88782"
         width="378.89471" />
      <path
         style="fill:url(#radialGradient3300);fill-opacity:1;fill-rule:evenodd;stroke:#000030;stroke-width:0.5;stroke-linecap:butt;stroke-linejoin:miter;stroke-miterlimit:4;stroke-opacity:1;stroke-dasharray:none"
         id="path3254"
         d="m 279.41935,402.42925 c 0,0 53.22674,-57.10351 105.32613,-119.98356 l 2.27572,0.70267 c 0,0 108.04858,-118.41295 81.61943,-127.99999 0,0 -13.21457,-26.17004 -116.85829,99.75708 l -0.19931,1.88973 c -47.81988,55.1486 -100.95309,122.38959 -100.95309,122.38959 -41.04082,58.99617 -65.40881,102.60205 -63.39341,106.81606 2.73952,5.7281 92.34185,-82.99773 92.18282,-83.57158 z"
         inkscape:connector-curvature="0" />
      <path
         style="fill:url(#radialGradient3210);fill-opacity:1;fill-rule:evenodd;stroke:#606060;stroke-width:0.5;stroke-linecap:butt;stroke-linejoin:miter;stroke-miterlimit:4;stroke-opacity:1;stroke-dasharray:none"
         id="path2430"
         d="m 248.88937,380.28407 c 11.63434,11.90918 30.5974,24.00156 30.5974,24.00156 l 3.75596,-4.76367 c -12.86808,-6.7251 -30.78061,-23.81833 -30.78061,-23.81833 l -3.57275,4.58044 z"
         inkscape:connector-curvature="0" />
      <path
         style="fill:url(#radialGradient3238);fill-opacity:1;fill-rule:evenodd;stroke:#606060;stroke-width:0.5;stroke-linecap:butt;stroke-linejoin:miter;stroke-miterlimit:4;stroke-opacity:1;stroke-dasharray:none"
         id="path3236"
         d="m 349.52184,256.42873 c 20.52041,13.1001 36.64359,28.94845 36.64359,28.94845 l 2.74826,-3.20632 C 377.9694,270.59048 352.22755,253.07064 352.22755,253.07064 l -2.70571,3.35809 z"
         inkscape:connector-curvature="0" />
      <path
         style="fill:url(#radialGradient3248);fill-opacity:1;fill-rule:evenodd;stroke:#4a4a4a;stroke-width:0.60000002;stroke-linecap:butt;stroke-linejoin:miter;stroke-miterlimit:4;stroke-opacity:1;stroke-dasharray:none"
         id="path3240"
         d="m 462.24667,151.81129 c 10.80986,0.91608 12.64205,10.44342 12.64205,10.44342 -49.28564,51.30103 -121.47351,125.87074 -121.47351,125.87074 l -3.66436,-3.11471 C 413.32748,208.79208 462.24667,151.81129 462.24667,151.81129"
         inkscape:connector-curvature="0" />
    </g>
    <g
       id="g3298"
       transform="matrix(-0.69326048,0,0,0.69653057,471.1413,319.20344)">
      <rect
         style="opacity:0;color:#000000;fill:url(#linearGradient2855-7);fill-opacity:1;fill-rule:nonzero;stroke:none;stroke-width:0.96360266;marker:none;visibility:visible;display:inline;overflow:visible;enable-background:accumulate"
         id="rect3872"
         y="0"
         x="0"
         ry="0"
         rx="0"
         height="128"
         width="128" />
      <path
         style="color:#000000;fill:url(#linearGradient3503);fill-opacity:1;fill-rule:nonzero;stroke:none;stroke-width:0.96360266;marker:none;visibility:visible;display:inline;overflow:visible;enable-background:accumulate"
         id="rect3034"
         d="m 29.09375,11.235605 c -3.183804,0 -5.71875,2.566196 -5.71875,5.75 l 0,94.028785 c 0,3.1838 2.534946,5.75 5.71875,5.75 l 69.8125,0 c 3.1838,0 5.71875,-2.5662 5.71875,-5.75 l 0,-70.653785 -21.03125,0 c -4.306108,0 -8.0625,-3.141109 -8.0625,-7.3125 l 0,-21.8125 z m 50.4375,0 0,21.8125 c 0,1.714122 1.631968,3.3125 4.0625,3.3125 l 21.03125,0 z"
         inkscape:connector-curvature="0" />
      <rect
         style="color:#000000;fill:#4d4d4d;fill-opacity:1;fill-rule:nonzero;stroke:none;stroke-width:0.96360266;marker:none;visibility:visible;display:inline;overflow:visible;enable-background:accumulate"
         id="rect2987"
         y="36.396683"
         x="34.156815"
         ry="1.7672669"
         rx="1.7672669"
         height="6.1854339"
         width="38.025841" />
      <rect
         style="color:#000000;fill:#4d4d4d;fill-opacity:1;fill-rule:nonzero;stroke:none;stroke-width:0.96360266;marker:none;visibility:visible;display:inline;overflow:visible;enable-background:accumulate"
         id="rect2999"
         y="65.225555"
         x="34.156815"
         ry="1.7672669"
         rx="1.7672669"
         height="6.1854339"
         width="59.686375" />
      <rect
         style="color:#000000;fill:#4d4d4d;fill-opacity:1;fill-rule:nonzero;stroke:none;stroke-width:0.96360266;marker:none;visibility:visible;display:inline;overflow:visible;enable-background:accumulate"
         id="rect3001"
         y="50.811119"
         x="34.156815"
         ry="1.7672669"
         rx="1.7672669"
         height="6.1854339"
         width="38.025841" />
      <rect
         style="color:#000000;fill:#4d4d4d;fill-opacity:1;fill-rule:nonzero;stroke:none;stroke-width:0.96360266;marker:none;visibility:visible;display:inline;overflow:visible;enable-background:accumulate"
         id="rect3003"
         y="79.639992"
         x="34.156815"
         ry="1.7672669"
         rx="1.7672669"
         height="6.1854339"
         width="59.686375" />
      <rect
         style="color:#000000;fill:#4d4d4d;fill-opacity:1;fill-rule:nonzero;stroke:none;stroke-width:0.96360266;marker:none;visibility:visible;display:inline;overflow:visible;enable-background:accumulate"
         id="rect3005"
         y="94.054428"
         x="34.156815"
         ry="1.7672669"
         rx="1.7672669"
         height="6.1854339"
         width="59.686375" />
    </g>
    <path
       style="fill:#5955a9;fill-opacity:0.99215686;stroke:#5955a9;stroke-width:3.56241179;stroke-linecap:butt;stroke-linejoin:miter;stroke-miterlimit:4;stroke-opacity:0.99215686;stroke-dasharray:none;marker-start:url(#Arrow1Mstartx0);marker-mid:none;marker-end:url(#Arrow1Mendj)"
       d="m 142.74931,363.90832 249.05055,0"
       id="path4691"
       inkscape:connector-curvature="0"
       sodipodi:nodetypes="cc" />
    <g
       id="g3215"
       transform="matrix(0.36625082,0,0,0.36625082,-15.949075,288.22216)">
      <g
         word-spacing="normal"
         letter-spacing="normal"
         font-size-adjust="none"
         font-stretch="normal"
         font-weight="normal"
         font-variant="normal"
         font-style="normal"
         stroke-miterlimit="10.433"
         xml:space="preserve"
         transform="matrix(1.0629921,0,0,-1.0629921,-186.02362,789.27165)"
         id="content"
         style="font-style:normal;font-variant:normal;font-weight:normal;font-stretch:normal;letter-spacing:normal;word-spacing:normal;text-anchor:start;fill:none;stroke:#000000;stroke-linecap:butt;stroke-linejoin:miter;stroke-miterlimit:10.43299961;stroke-opacity:1;stroke-dasharray:none;stroke-dashoffset:0"><path
           id="path3218"
           d="m 474.16,436.34 0.04,0.16 0.04,0.16 0.04,0.15 0.04,0.15 0.04,0.13 0.05,0.13 0.05,0.13 0.05,0.11 0.06,0.12 0.06,0.1 0.08,0.1 0.08,0.09 0.09,0.09 0.1,0.08 0.11,0.08 0.12,0.07 0.13,0.06 0.15,0.06 0.16,0.06 0.18,0.05 0.09,0.02 0.1,0.02 0.1,0.02 0.11,0.02 0.11,0.02 0.11,0.02 0.12,0.02 0.13,0.01 0.13,0.01 0.14,0.02 0.14,0.01 0.14,0.01 0.15,0.01 0.16,0.01 0.16,0.01 0.17,0.01 0.17,0 0.18,0.01 0.18,0 0.19,0.01 0.2,0 0.2,0 0.21,0 0.22,0 c 1.49,0 1.89,0 1.89,0.96 0,0.59 -0.54,0.59 -0.79,0.59 -1.66,0 -5.74,-0.16 -7.38,-0.16 -1.5,0 -5.14,0.16 -6.62,0.16 -0.36,0 -0.96,0 -0.96,-1 0,-0.55 0.46,-0.55 1.39,-0.55 0.11,0 1.05,0 1.91,-0.09 0.89,-0.11 1.34,-0.16 1.34,-0.8 0,-0.2 -0.06,-0.36 -0.2,-0.95 l -6.67,-26.75 c -0.5,-1.95 -0.61,-2.34 -4.55,-2.34 -0.84,0 -1.34,0 -1.34,-1 0,-0.55 0.45,-0.55 1.34,-0.55 h 23.08 c 1.19,0 1.23,0 1.55,0.84 l 3.92,10.77 c 0.2,0.55 0.2,0.64 0.2,0.7 0,0.19 -0.14,0.55 -0.59,0.55 -0.46,0 -0.5,-0.25 -0.85,-1.05 -1.7,-4.59 -3.89,-10.26 -12.51,-10.26 h -4.67 c -0.71,0 -0.8,0 -1.1,0.04 -0.5,0.05 -0.65,0.1 -0.65,0.5 0,0.14 0,0.25 0.25,1.14 z"
           inkscape:connector-curvature="0"
           style="fill:#000000;stroke-width:0" /><path
           id="path3220"
           d="m 517.07,406.81 0.01,0.02 0.01,0.02 0.01,0.02 0.01,0.02 0.01,0.02 0.01,0.02 0.01,0.02 0.01,0.01 0,0.02 0.01,0.02 0.02,0.03 0.01,0.03 0.01,0.03 0.01,0.03 0.01,0.03 0.01,0.02 0.01,0.03 0.01,0.02 0,0.02 0.01,0.02 0.01,0.02 0,0.02 0,0.01 0.01,0.02 0,0.01 0,0.01 0.01,0.02 0,0.01 0,0.01 0,0.01 0,0 0,0.01 0,0.01 0,0 0,0.01 0,0 0,0 c 0,0.22 -0.14,0.5 -0.59,0.5 -0.08,0 -0.25,0 -0.39,-0.14 -0.06,-0.08 -0.11,-0.11 -0.52,-1.01 -2.26,-5.02 -4.04,-6.77 -9.73,-6.77 h -5.92 c -1.08,0 -1.11,0.05 -1.11,0.36 0,0.03 0,0.2 0.14,0.72 l 2.33,9.34 h 3.9 c 2.75,0 3.17,-0.45 3.17,-1.61 0,-0.37 -0.11,-0.96 -0.25,-1.56 -0.09,-0.31 -0.09,-0.34 -0.09,-0.42 0,-0.06 0.03,-0.48 0.59,-0.48 0.49,0 0.52,0.17 0.66,0.76 l 1.92,7.64 c 0.1,0.41 0.1,0.49 0.1,0.52 0,0.34 -0.27,0.48 -0.6,0.48 -0.45,0 -0.48,-0.17 -0.69,-0.9 -0.73,-2.72 -1.78,-3.18 -4.73,-3.18 h -3.67 l 2.09,8.3 c 0.28,1.08 0.31,1.19 1.78,1.19 h 5.68 c 4.57,0 5.71,-0.94 5.71,-4.05 0,-0.91 -0.14,-1.95 -0.14,-2.12 0,-0.29 0.11,-0.6 0.6,-0.6 0.53,0 0.56,0.31 0.62,0.91 l 0.63,6.06 c 0.11,1.05 -0.13,1.05 -1,1.05 h -19.17 c -0.69,0 -1.11,0 -1.11,-0.77 0,-0.48 0.37,-0.48 1.15,-0.48 0.55,0 0.69,0 1.31,-0.08 0.71,-0.06 0.77,-0.13 0.77,-0.48 0,-0.24 -0.09,-0.6 -0.14,-0.77 l -4.56,-18.22 c -0.35,-1.36 -0.38,-1.61 -3.1,-1.61 -0.62,0 -1.04,0 -1.04,-0.76 0,-0.49 0.42,-0.49 1.04,-0.49 h 19.69 c 0.86,0 0.91,0 1.19,0.63 z"
           inkscape:connector-curvature="0"
           style="fill:#000000;stroke-width:0" /></g>    </g>
    <flowRoot
       xml:space="preserve"
       id="flowRoot3342"
       style="font-size:12px;font-style:normal;font-variant:normal;font-weight:500;font-stretch:normal;text-align:center;line-height:125%;letter-spacing:0px;word-spacing:0px;text-anchor:middle;fill:#000000;fill-opacity:1;stroke:none;font-family:URW Palladio L;-inkscape-font-specification:URW Palladio L Medium"><flowRegion
         id="flowRegion3344"><rect
           id="rect3346"
           width="56.922096"
           height="24.748737"
           x="6.7175145"
           y="132.44711" /></flowRegion><flowPara
         id="flowPara3348" /></flowRoot>    <g
       transform="matrix(0.36625082,0,0,0.36625082,304.40632,288.22216)"
       id="g3474">
      <g
         style="font-style:normal;font-variant:normal;font-weight:normal;font-stretch:normal;letter-spacing:normal;word-spacing:normal;text-anchor:start;fill:none;stroke:#000000;stroke-linecap:butt;stroke-linejoin:miter;stroke-miterlimit:10.43299961;stroke-opacity:1;stroke-dasharray:none;stroke-dashoffset:0"
         id="g3476"
         transform="matrix(1.0629921,0,0,-1.0629921,-186.02362,789.27165)"
         xml:space="preserve"
         stroke-miterlimit="10.433"
         font-style="normal"
         font-variant="normal"
         font-weight="normal"
         font-stretch="normal"
         font-size-adjust="none"
         letter-spacing="normal"
         word-spacing="normal"><path
           style="fill:#000000;stroke-width:0"
           inkscape:connector-curvature="0"
           d="m 474.16,436.34 0.04,0.16 0.04,0.16 0.04,0.15 0.04,0.15 0.04,0.13 0.05,0.13 0.05,0.13 0.05,0.11 0.06,0.12 0.06,0.1 0.08,0.1 0.08,0.09 0.09,0.09 0.1,0.08 0.11,0.08 0.12,0.07 0.13,0.06 0.15,0.06 0.16,0.06 0.18,0.05 0.09,0.02 0.1,0.02 0.1,0.02 0.11,0.02 0.11,0.02 0.11,0.02 0.12,0.02 0.13,0.01 0.13,0.01 0.14,0.02 0.14,0.01 0.14,0.01 0.15,0.01 0.16,0.01 0.16,0.01 0.17,0.01 0.17,0 0.18,0.01 0.18,0 0.19,0.01 0.2,0 0.2,0 0.21,0 0.22,0 c 1.49,0 1.89,0 1.89,0.96 0,0.59 -0.54,0.59 -0.79,0.59 -1.66,0 -5.74,-0.16 -7.38,-0.16 -1.5,0 -5.14,0.16 -6.62,0.16 -0.36,0 -0.96,0 -0.96,-1 0,-0.55 0.46,-0.55 1.39,-0.55 0.11,0 1.05,0 1.91,-0.09 0.89,-0.11 1.34,-0.16 1.34,-0.8 0,-0.2 -0.06,-0.36 -0.2,-0.95 l -6.67,-26.75 c -0.5,-1.95 -0.61,-2.34 -4.55,-2.34 -0.84,0 -1.34,0 -1.34,-1 0,-0.55 0.45,-0.55 1.34,-0.55 h 23.08 c 1.19,0 1.23,0 1.55,0.84 l 3.92,10.77 c 0.2,0.55 0.2,0.64 0.2,0.7 0,0.19 -0.14,0.55 -0.59,0.55 -0.46,0 -0.5,-0.25 -0.85,-1.05 -1.7,-4.59 -3.89,-10.26 -12.51,-10.26 h -4.67 c -0.71,0 -0.8,0 -1.1,0.04 -0.5,0.05 -0.65,0.1 -0.65,0.5 0,0.14 0,0.25 0.25,1.14 z"
           id="path3478" /><path
           style="fill:#000000;stroke-width:0"
           inkscape:connector-curvature="0"
           d="m 501.4,409.98 h 3.72 c 2.66,0 3.11,-0.42 3.11,-1.56 0,-0.53 0,-0.6 -0.25,-1.58 -0.06,-0.2 -0.11,-0.31 -0.11,-0.41 0,-0.36 0.25,-0.53 0.59,-0.53 0.46,0 0.5,0.17 0.68,0.8 l 1.87,7.39 c 0.03,0.11 0.14,0.62 0.14,0.7 0,0.35 -0.25,0.52 -0.59,0.52 -0.49,0 -0.52,-0.2 -0.69,-0.83 -0.7,-2.72 -1.72,-3.25 -4.67,-3.25 h -3.49 l 2.19,8.75 c 0.28,1.08 0.31,1.19 1.78,1.19 h 5.33 c 4.64,0 5.52,-1.11 5.52,-4.02 0,-1.14 -0.14,-1.87 -0.14,-2.15 0,-0.29 0.09,-0.6 0.59,-0.6 0.52,0 0.55,0.31 0.62,0.91 l 0.63,6.06 c 0.09,1.05 -0.14,1.05 -1.01,1.05 h -18.61 c -0.66,0 -1.11,0 -1.11,-0.77 0,-0.48 0.42,-0.48 1.11,-0.48 0.04,0 0.7,0 1.32,-0.08 0.74,-0.06 0.8,-0.13 0.8,-0.48 0,-0.24 -0.09,-0.6 -0.14,-0.77 l -4.56,-18.22 c -0.35,-1.36 -0.38,-1.61 -3.1,-1.61 -0.59,0 -1.04,0 -1.04,-0.73 0,-0.35 0.23,-0.52 0.56,-0.52 1,0 3.58,0.14 4.59,0.14 l 2.69,-0.03 c 0.91,0 1.88,-0.11 2.75,-0.11 0.23,0 0.77,0 0.77,0.77 0,0.48 -0.43,0.48 -1.22,0.48 -0.08,0 -0.94,0 -1.82,0.08 -0.73,0.06 -1.07,0.09 -1.07,0.59 0,0.14 0,0.24 0.09,0.63 z"
           id="path3480" /></g>    </g>
    <text
       sodipodi:linespacing="125%"
       id="text3105"
       y="356.58331"
       x="172.04938"
       style="font-size:17.58003998px;font-style:normal;font-variant:normal;font-weight:500;font-stretch:normal;text-align:start;line-height:125%;letter-spacing:0px;word-spacing:0px;text-anchor:start;fill:#008000;fill-opacity:1;stroke:none;font-family:URW Palladio L;-inkscape-font-specification:URW Palladio L Medium"
       xml:space="preserve"><tspan
         y="356.58331"
         x="172.04938"
         id="tspan3107"
         sodipodi:role="line">WRITE</tspan></text>
    <g
       id="g3271"
       transform="matrix(0.36625082,0,0,0.36625082,93.405803,252.05791)"
       style="fill:#800000;fill-opacity:1">
      <g
         word-spacing="normal"
         letter-spacing="normal"
         font-size-adjust="none"
         font-stretch="normal"
         font-weight="normal"
         font-variant="normal"
         font-style="normal"
         stroke-miterlimit="10.433"
         xml:space="preserve"
         transform="matrix(1.0629921,0,0,-1.0629921,-186.02362,789.27165)"
         id="g3273"
         style="font-style:normal;font-variant:normal;font-weight:normal;font-stretch:normal;letter-spacing:normal;word-spacing:normal;text-anchor:start;fill:#800000;fill-opacity:1;stroke:#000000;stroke-linecap:butt;stroke-linejoin:miter;stroke-miterlimit:10.43299961;stroke-opacity:1;stroke-dasharray:none;stroke-dashoffset:0"><path
           id="path3275"
           d="m 474.16,436.34 0.04,0.16 0.04,0.16 0.04,0.15 0.04,0.15 0.04,0.13 0.05,0.13 0.05,0.13 0.05,0.11 0.06,0.12 0.06,0.1 0.08,0.1 0.08,0.09 0.09,0.09 0.1,0.08 0.11,0.08 0.12,0.07 0.13,0.06 0.15,0.06 0.16,0.06 0.18,0.05 0.09,0.02 0.1,0.02 0.1,0.02 0.11,0.02 0.11,0.02 0.11,0.02 0.12,0.02 0.13,0.01 0.13,0.01 0.14,0.02 0.14,0.01 0.14,0.01 0.15,0.01 0.16,0.01 0.16,0.01 0.17,0.01 0.17,0 0.18,0.01 0.18,0 0.19,0.01 0.2,0 0.2,0 0.21,0 0.22,0 c 1.49,0 1.89,0 1.89,0.96 0,0.59 -0.54,0.59 -0.79,0.59 -1.66,0 -5.74,-0.16 -7.38,-0.16 -1.5,0 -5.14,0.16 -6.62,0.16 -0.36,0 -0.96,0 -0.96,-1 0,-0.55 0.46,-0.55 1.39,-0.55 0.11,0 1.05,0 1.91,-0.09 0.89,-0.11 1.34,-0.16 1.34,-0.8 0,-0.2 -0.06,-0.36 -0.2,-0.95 l -6.67,-26.75 c -0.5,-1.95 -0.61,-2.34 -4.55,-2.34 -0.84,0 -1.34,0 -1.34,-1 0,-0.55 0.45,-0.55 1.34,-0.55 h 23.08 c 1.19,0 1.23,0 1.55,0.84 l 3.92,10.77 c 0.2,0.55 0.2,0.64 0.2,0.7 0,0.19 -0.14,0.55 -0.59,0.55 -0.46,0 -0.5,-0.25 -0.85,-1.05 -1.7,-4.59 -3.89,-10.26 -12.51,-10.26 h -4.67 c -0.71,0 -0.8,0 -1.1,0.04 -0.5,0.05 -0.65,0.1 -0.65,0.5 0,0.14 0,0.25 0.25,1.14 z"
           inkscape:connector-curvature="0"
           style="fill:#800000;fill-opacity:1;stroke-width:0" /><path
           id="path3277"
           d="m 501.4,409.98 h 3.72 c 2.66,0 3.11,-0.42 3.11,-1.56 0,-0.53 0,-0.6 -0.25,-1.58 -0.06,-0.2 -0.11,-0.31 -0.11,-0.41 0,-0.36 0.25,-0.53 0.59,-0.53 0.46,0 0.5,0.17 0.68,0.8 l 1.87,7.39 c 0.03,0.11 0.14,0.62 0.14,0.7 0,0.35 -0.25,0.52 -0.59,0.52 -0.49,0 -0.52,-0.2 -0.69,-0.83 -0.7,-2.72 -1.72,-3.25 -4.67,-3.25 h -3.49 l 2.19,8.75 c 0.28,1.08 0.31,1.19 1.78,1.19 h 5.33 c 4.64,0 5.52,-1.11 5.52,-4.02 0,-1.14 -0.14,-1.87 -0.14,-2.15 0,-0.29 0.09,-0.6 0.59,-0.6 0.52,0 0.55,0.31 0.62,0.91 l 0.63,6.06 c 0.09,1.05 -0.14,1.05 -1.01,1.05 h -18.61 c -0.66,0 -1.11,0 -1.11,-0.77 0,-0.48 0.42,-0.48 1.11,-0.48 0.04,0 0.7,0 1.32,-0.08 0.74,-0.06 0.8,-0.13 0.8,-0.48 0,-0.24 -0.09,-0.6 -0.14,-0.77 l -4.56,-18.22 c -0.35,-1.36 -0.38,-1.61 -3.1,-1.61 -0.59,0 -1.04,0 -1.04,-0.73 0,-0.35 0.23,-0.52 0.56,-0.52 1,0 3.58,0.14 4.59,0.14 l 2.69,-0.03 c 0.91,0 1.88,-0.11 2.75,-0.11 0.23,0 0.77,0 0.77,0.77 0,0.48 -0.43,0.48 -1.22,0.48 -0.08,0 -0.94,0 -1.82,0.08 -0.73,0.06 -1.07,0.09 -1.07,0.59 0,0.14 0,0.24 0.09,0.63 z"
           inkscape:connector-curvature="0"
           style="fill:#800000;fill-opacity:1;stroke-width:0" /><path
           id="path3279"
           d="m 570.23,435.89 0.16,0 0.15,0 0.16,0 0.08,0.01 0.08,0 0.07,0.01 0.08,0.01 0.07,0.01 0.07,0.01 0.07,0.01 0.07,0.02 0.06,0.02 0.07,0.02 0.06,0.03 0.06,0.02 0.05,0.04 0.06,0.03 0.04,0.04 0.05,0.04 0.04,0.05 0.04,0.05 0.02,0.03 0.02,0.02 0.01,0.03 0.02,0.03 0.01,0.03 0.01,0.04 0.02,0.03 0.01,0.04 0.01,0.03 0,0.04 0.01,0.04 0.01,0.04 0,0.04 0,0.05 0.01,0.04 0,0.05 c 0,1 -0.91,1 -1.75,1 h -27.35 c -1.61,0 -1.79,-0.21 -1.79,-1.8 v -25.25 c 0,-1.66 0.14,-1.8 1.73,-1.8 h 27.41 c 0.84,0 1.75,0 1.75,1 0,0.99 -0.96,0.99 -1.8,0.99 h -27.11 v 24.86 z"
           inkscape:connector-curvature="0"
           style="fill:#800000;fill-opacity:1;stroke-width:0" /><path
           id="path3281"
           d="m 570.23,399.37 0.16,0 0.15,0 0.16,0.01 0.08,0 0.08,0.01 0.07,0 0.08,0.01 0.07,0.01 0.07,0.01 0.07,0.02 0.07,0.01 0.06,0.02 0.07,0.03 0.06,0.02 0.06,0.03 0.05,0.03 0.06,0.04 0.04,0.03 0.05,0.05 0.04,0.04 0.04,0.05 0.02,0.03 0.02,0.03 0.01,0.03 0.02,0.03 0.01,0.03 0.01,0.03 0.02,0.04 0.01,0.03 0.01,0.04 0,0.04 0.01,0.03 0.01,0.04 0,0.05 0,0.04 0.01,0.04 0,0.05 c 0,1 -1.05,1 -1.8,1 h -27.86 c -0.8,0 -1.78,0 -1.78,-1 0,-1 0.89,-1 1.73,-1 z"
           inkscape:connector-curvature="0"
           style="fill:#800000;fill-opacity:1;stroke-width:0" /><path
           id="path3283"
           d="m 607.6,436.34 0.04,0.16 0.04,0.16 0.04,0.15 0.04,0.15 0.04,0.13 0.05,0.13 0.04,0.13 0.06,0.11 0.06,0.12 0.06,0.1 0.07,0.1 0.08,0.09 0.09,0.09 0.1,0.08 0.11,0.08 0.12,0.07 0.14,0.06 0.15,0.06 0.16,0.06 0.17,0.05 0.1,0.02 0.1,0.02 0.1,0.02 0.1,0.02 0.12,0.02 0.11,0.02 0.12,0.02 0.13,0.01 0.13,0.01 0.13,0.02 0.14,0.01 0.15,0.01 0.15,0.01 0.16,0.01 0.16,0.01 0.16,0.01 0.18,0 0.18,0.01 0.18,0 0.19,0.01 0.2,0 0.2,0 0.21,0 0.22,0 c 1.48,0 1.89,0 1.89,0.96 0,0.59 -0.55,0.59 -0.8,0.59 -1.65,0 -5.73,-0.16 -7.37,-0.16 -1.5,0 -5.14,0.16 -6.63,0.16 -0.36,0 -0.95,0 -0.95,-1 0,-0.55 0.45,-0.55 1.39,-0.55 0.11,0 1.05,0 1.91,-0.09 0.89,-0.11 1.34,-0.16 1.34,-0.8 0,-0.2 -0.06,-0.36 -0.2,-0.95 l -6.68,-26.75 c -0.5,-1.95 -0.6,-2.34 -4.54,-2.34 -0.84,0 -1.34,0 -1.34,-1 0,-0.55 0.45,-0.55 1.34,-0.55 h 23.08 c 1.18,0 1.23,0 1.54,0.84 l 3.92,10.77 c 0.21,0.55 0.21,0.64 0.21,0.7 0,0.19 -0.14,0.55 -0.59,0.55 -0.46,0 -0.5,-0.25 -0.85,-1.05 -1.7,-4.59 -3.89,-10.26 -12.52,-10.26 h -4.67 c -0.7,0 -0.79,0 -1.09,0.04 -0.5,0.05 -0.66,0.1 -0.66,0.5 0,0.14 0,0.25 0.25,1.14 z"
           inkscape:connector-curvature="0"
           style="fill:#800000;fill-opacity:1;stroke-width:0" /><path
           id="path3285"
           d="m 650.52,406.81 0.01,0.02 0.01,0.02 0.01,0.02 0,0.02 0.01,0.02 0.01,0.02 0.01,0.02 0.01,0.01 0.01,0.02 0,0.02 0.02,0.03 0.01,0.03 0.01,0.03 0.01,0.03 0.01,0.03 0.01,0.02 0.01,0.03 0.01,0.02 0.01,0.02 0,0.02 0.01,0.02 0,0.02 0.01,0.01 0,0.02 0,0.01 0.01,0.01 0,0.02 0,0.01 0,0.01 0,0.01 0,0 0,0.01 0,0.01 0,0 0,0.01 0,0 0,0 c 0,0.22 -0.14,0.5 -0.59,0.5 -0.08,0 -0.25,0 -0.39,-0.14 -0.06,-0.08 -0.11,-0.11 -0.52,-1.01 -2.26,-5.02 -4.04,-6.77 -9.73,-6.77 h -5.92 c -1.08,0 -1.11,0.05 -1.11,0.36 0,0.03 0,0.2 0.14,0.72 l 2.33,9.34 h 3.9 c 2.75,0 3.18,-0.45 3.18,-1.61 0,-0.37 -0.11,-0.96 -0.25,-1.56 -0.1,-0.31 -0.1,-0.34 -0.1,-0.42 0,-0.06 0.03,-0.48 0.6,-0.48 0.48,0 0.51,0.17 0.65,0.76 l 1.92,7.64 c 0.1,0.41 0.1,0.49 0.1,0.52 0,0.34 -0.27,0.48 -0.6,0.48 -0.45,0 -0.48,-0.17 -0.68,-0.9 -0.74,-2.72 -1.78,-3.18 -4.74,-3.18 h -3.67 l 2.09,8.3 c 0.28,1.08 0.32,1.19 1.78,1.19 h 5.68 c 4.58,0 5.72,-0.94 5.72,-4.05 0,-0.91 -0.14,-1.95 -0.14,-2.12 0,-0.29 0.1,-0.6 0.59,-0.6 0.53,0 0.56,0.31 0.62,0.91 l 0.63,6.06 c 0.11,1.05 -0.13,1.05 -1,1.05 h -19.17 c -0.69,0 -1.11,0 -1.11,-0.77 0,-0.48 0.37,-0.48 1.15,-0.48 0.55,0 0.69,0 1.32,-0.08 0.7,-0.06 0.76,-0.13 0.76,-0.48 0,-0.24 -0.09,-0.6 -0.14,-0.77 l -4.56,-18.22 c -0.35,-1.36 -0.38,-1.61 -3.09,-1.61 -0.63,0 -1.05,0 -1.05,-0.76 0,-0.49 0.42,-0.49 1.05,-0.49 h 19.68 c 0.86,0 0.91,0 1.19,0.63 z"
           inkscape:connector-curvature="0"
           style="fill:#800000;fill-opacity:1;stroke-width:0" /><path
           id="path3287"
           d="m 704.27,435.89 0.16,0 0.16,0 0.15,0 0.08,0.01 0.08,0 0.07,0.01 0.08,0.01 0.07,0.01 0.07,0.01 0.07,0.01 0.07,0.02 0.07,0.02 0.06,0.02 0.06,0.03 0.06,0.02 0.06,0.04 0.05,0.03 0.05,0.04 0.04,0.04 0.05,0.05 0.04,0.05 0.01,0.03 0.02,0.02 0.02,0.03 0.01,0.03 0.01,0.03 0.02,0.04 0.01,0.03 0.01,0.04 0.01,0.03 0.01,0.04 0,0.04 0.01,0.04 0,0.04 0.01,0.05 0,0.04 0,0.05 c 0,1 -0.91,1 -1.75,1 h -27.34 c -1.61,0 -1.8,-0.21 -1.8,-1.8 v -25.25 c 0,-1.66 0.14,-1.8 1.73,-1.8 h 27.41 c 0.84,0 1.75,0 1.75,1 0,0.99 -0.95,0.99 -1.8,0.99 h -27.11 v 24.86 z"
           inkscape:connector-curvature="0"
           style="fill:#800000;fill-opacity:1;stroke-width:0" /><path
           id="path3289"
           d="m 704.27,399.37 0.16,0 0.16,0 0.15,0.01 0.08,0 0.08,0.01 0.07,0 0.08,0.01 0.07,0.01 0.07,0.01 0.07,0.02 0.07,0.01 0.07,0.02 0.06,0.03 0.06,0.02 0.06,0.03 0.06,0.03 0.05,0.04 0.05,0.03 0.04,0.05 0.05,0.04 0.04,0.05 0.01,0.03 0.02,0.03 0.02,0.03 0.01,0.03 0.01,0.03 0.02,0.03 0.01,0.04 0.01,0.03 0.01,0.04 0.01,0.04 0,0.03 0.01,0.04 0,0.05 0.01,0.04 0,0.04 0,0.05 c 0,1 -1.05,1 -1.8,1 h -27.86 c -0.79,0 -1.78,0 -1.78,-1 0,-1 0.89,-1 1.74,-1 z"
           inkscape:connector-curvature="0"
           style="fill:#800000;fill-opacity:1;stroke-width:0" /><path
           id="path3291"
           d="m 741.64,436.34 0.04,0.16 0.04,0.16 0.04,0.15 0.04,0.15 0.04,0.13 0.04,0.13 0.05,0.13 0.06,0.11 0.06,0.12 0.06,0.1 0.07,0.1 0.08,0.09 0.09,0.09 0.1,0.08 0.11,0.08 0.12,0.07 0.14,0.06 0.14,0.06 0.17,0.06 0.17,0.05 0.1,0.02 0.09,0.02 0.11,0.02 0.1,0.02 0.12,0.02 0.11,0.02 0.12,0.02 0.13,0.01 0.13,0.01 0.13,0.02 0.14,0.01 0.15,0.01 0.15,0.01 0.15,0.01 0.17,0.01 0.16,0.01 0.18,0 0.18,0.01 0.18,0 0.19,0.01 0.2,0 0.2,0 0.21,0 0.22,0 c 1.48,0 1.89,0 1.89,0.96 0,0.59 -0.55,0.59 -0.8,0.59 -1.66,0 -5.73,-0.16 -7.37,-0.16 -1.5,0 -5.14,0.16 -6.63,0.16 -0.36,0 -0.95,0 -0.95,-1 0,-0.55 0.45,-0.55 1.39,-0.55 0.11,0 1.05,0 1.9,-0.09 0.9,-0.11 1.35,-0.16 1.35,-0.8 0,-0.2 -0.06,-0.36 -0.2,-0.95 l -6.68,-26.75 c -0.5,-1.95 -0.6,-2.34 -4.54,-2.34 -0.85,0 -1.35,0 -1.35,-1 0,-0.55 0.46,-0.55 1.35,-0.55 h 23.07 c 1.19,0 1.24,0 1.55,0.84 l 3.92,10.77 c 0.21,0.55 0.21,0.64 0.21,0.7 0,0.19 -0.14,0.55 -0.6,0.55 -0.45,0 -0.5,-0.25 -0.84,-1.05 -1.7,-4.59 -3.89,-10.26 -12.52,-10.26 h -4.67 c -0.7,0 -0.8,0 -1.09,0.04 -0.5,0.05 -0.66,0.1 -0.66,0.5 0,0.14 0,0.25 0.25,1.14 z"
           inkscape:connector-curvature="0"
           style="fill:#800000;fill-opacity:1;stroke-width:0" /><path
           id="path3293"
           d="m 768.88,409.98 h 3.72 c 2.66,0 3.11,-0.42 3.11,-1.56 0,-0.53 0,-0.6 -0.25,-1.58 -0.06,-0.2 -0.11,-0.31 -0.11,-0.41 0,-0.36 0.25,-0.53 0.6,-0.53 0.45,0 0.5,0.17 0.67,0.8 l 1.87,7.39 c 0.03,0.11 0.14,0.62 0.14,0.7 0,0.35 -0.25,0.52 -0.59,0.52 -0.49,0 -0.52,-0.2 -0.69,-0.83 -0.7,-2.72 -1.72,-3.25 -4.67,-3.25 h -3.48 l 2.18,8.75 c 0.28,1.08 0.32,1.19 1.78,1.19 h 5.33 c 4.64,0 5.52,-1.11 5.52,-4.02 0,-1.14 -0.14,-1.87 -0.14,-2.15 0,-0.29 0.09,-0.6 0.59,-0.6 0.52,0 0.55,0.31 0.63,0.91 l 0.62,6.06 c 0.09,1.05 -0.14,1.05 -1.01,1.05 h -18.61 c -0.66,0 -1.11,0 -1.11,-0.77 0,-0.48 0.42,-0.48 1.11,-0.48 0.04,0 0.7,0 1.32,-0.08 0.74,-0.06 0.8,-0.13 0.8,-0.48 0,-0.24 -0.09,-0.6 -0.14,-0.77 l -4.56,-18.22 c -0.35,-1.36 -0.38,-1.61 -3.1,-1.61 -0.59,0 -1.04,0 -1.04,-0.73 0,-0.35 0.23,-0.52 0.56,-0.52 1,0 3.58,0.14 4.59,0.14 l 2.69,-0.03 c 0.91,0 1.88,-0.11 2.75,-0.11 0.24,0 0.77,0 0.77,0.77 0,0.48 -0.43,0.48 -1.22,0.48 -0.08,0 -0.94,0 -1.81,0.08 -0.74,0.06 -1.08,0.09 -1.08,0.59 0,0.14 0,0.24 0.09,0.63 z"
           inkscape:connector-curvature="0"
           style="fill:#800000;fill-opacity:1;stroke-width:0" /></g>    </g>
  </g>
</svg>
